<svg xmlns="http://www.w3.org/2000/svg" xmlns:xlink="http://www.w3.org/1999/xlink" width="500" zoomAndPan="magnify" viewBox="0 0 375 374.999991" height="500" preserveAspectRatio="xMidYMid meet" version="1.0"><defs><g/><clipPath id="id1"><path d="M 85.109375 150 L 98 150 L 98 158 L 85.109375 158 Z M 85.109375 150 " clip-rule="nonzero"/></clipPath><clipPath id="id2"><path d="M 123 90.679688 L 211 90.679688 L 211 152 L 123 152 Z M 123 90.679688 " clip-rule="nonzero"/></clipPath><clipPath id="id3"><path d="M 109 116 L 271.859375 116 L 271.859375 186 L 109 186 Z M 109 116 " clip-rule="nonzero"/></clipPath><clipPath id="id4"><path d="M 85.109375 150 L 98 150 L 98 158 L 85.109375 158 Z M 85.109375 150 " clip-rule="nonzero"/></clipPath><clipPath id="id5"><path d="M 149 176 L 173 176 L 173 197.929688 L 149 197.929688 Z M 149 176 " clip-rule="nonzero"/></clipPath><clipPath id="id6"><path d="M 217 176 L 240 176 L 240 197.929688 L 217 197.929688 Z M 217 176 " clip-rule="nonzero"/></clipPath></defs><g clip-path="url(#id1)"><path fill="#ff914d" d="M 97.089844 153.589844 C 96.84375 151.683594 95.109375 150.144531 93.207031 150.144531 L 88.878906 150.144531 C 86.976562 150.144531 85.617188 151.683594 85.863281 153.589844 C 86.109375 155.5 87.839844 157.039062 89.746094 157.039062 L 94.074219 157.039062 C 95.976562 157.039062 97.335938 155.5 97.089844 153.589844 Z M 97.089844 153.589844 " fill-opacity="1" fill-rule="evenodd"/></g><g clip-path="url(#id2)"><path fill="#ff914d" d="M 166.824219 90.679688 L 177.308594 113.742188 C 177.480469 114.136719 177.875 114.410156 178.320312 114.460938 L 209.035156 116.941406 C 209.949219 117.015625 210.617188 116.074219 210.246094 115.203125 L 202.234375 97.597656 C 202.0625 97.226562 201.738281 96.976562 201.34375 96.902344 L 166.847656 90.679688 Z M 132.128906 97.597656 L 123.945312 115.15625 C 123.546875 116.023438 124.242188 116.988281 125.179688 116.890625 L 155.941406 113.765625 C 156.386719 113.71875 156.757812 113.445312 156.933594 113.046875 L 166.824219 90.679688 L 133.019531 96.902344 C 132.625 96.976562 132.300781 97.226562 132.128906 97.597656 Z M 166.945312 109.304688 L 166.945312 145.0625 L 195.335938 139.65625 L 195.335938 122.246094 C 195.335938 121.527344 195.976562 120.957031 196.695312 121.03125 L 200.183594 121.578125 C 200.800781 121.652344 201.269531 122.171875 201.269531 122.792969 L 201.269531 143.027344 C 201.269531 143.597656 200.875 144.09375 200.304688 144.21875 L 169.246094 150.914062 C 167.738281 151.234375 166.179688 151.234375 164.695312 150.914062 L 133.960938 144.441406 C 133.414062 144.316406 133.019531 143.847656 132.996094 143.277344 L 132.476562 122.71875 C 132.449219 122.074219 132.945312 121.527344 133.589844 121.480469 L 159.703125 119.171875 C 160.148438 119.121094 160.542969 118.851562 160.714844 118.429688 L 164.648438 108.855469 C 165.167969 107.617188 166.996094 107.988281 166.996094 109.328125 Z M 166.945312 109.304688 " fill-opacity="1" fill-rule="evenodd"/></g><g clip-path="url(#id3)"><path fill="#000000" d="M 138.015625 164.453125 L 149.933594 164.453125 C 152.011719 164.453125 153.914062 166.140625 154.1875 168.246094 C 154.433594 170.328125 152.976562 172.015625 150.875 172.015625 L 112.246094 172.015625 C 110.394531 172.015625 109.105469 173.503906 109.328125 175.339844 C 109.550781 177.199219 111.234375 178.660156 113.0625 178.660156 L 133.390625 178.660156 L 133.488281 185.851562 L 146.667969 185.851562 C 147.683594 178.660156 154.238281 173.40625 161.507812 173.40625 C 168.753906 173.40625 174.957031 178.6875 175.453125 185.851562 L 198.003906 185.851562 L 198.003906 185.777344 L 210.964844 185.777344 C 212.59375 185.777344 214.078125 184.8125 214.699219 183.375 L 215.734375 180.992188 C 218.058594 175.613281 223.625 172.042969 229.683594 172.042969 C 235.148438 172.042969 240.019531 174.992188 242.21875 179.652344 L 244.148438 183.722656 C 244.742188 184.984375 246.054688 185.777344 247.535156 185.777344 L 265.835938 185.777344 C 267.617188 185.777344 269.222656 184.636719 269.71875 183 L 270.878906 179.28125 C 271.648438 176.777344 270.460938 174.222656 268.035156 173.183594 L 268.902344 157.660156 C 269.25 151.558594 267.765625 145.558594 264.625 140.351562 L 257.179688 129.164062 C 251.964844 121.304688 242.789062 116.644531 232.773438 116.765625 L 219.570312 116.914062 L 213.707031 116.941406 C 213.164062 119.074219 211.160156 120.734375 208.714844 120.535156 L 203.964844 120.164062 C 204.484375 120.933594 204.78125 121.851562 204.78125 122.816406 L 204.78125 143.050781 C 204.78125 145.308594 203.222656 147.242188 201.023438 147.738281 L 169.964844 154.433594 C 167.984375 154.855469 165.910156 154.882812 163.929688 154.460938 L 153.988281 152.375 L 137.398438 152.476562 L 133.539062 152.5 L 121.59375 152.574219 C 119.765625 152.574219 118.453125 154.0625 118.675781 155.898438 C 118.898438 157.734375 120.582031 159.21875 122.410156 159.21875 L 133.167969 159.21875 L 133.242188 164.503906 L 138.039062 164.503906 Z M 219.542969 141.492188 C 217.765625 141.117188 216.550781 139.605469 216.625 137.871094 L 217.046875 128.894531 C 217.144531 126.761719 219.097656 125.074219 221.324219 125.199219 L 238.683594 126.042969 C 242.9375 126.238281 246.722656 128.445312 248.75 131.941406 L 255.84375 144.191406 C 257.058594 146.277344 254.980469 148.832031 252.507812 148.335938 L 219.542969 141.539062 Z M 219.542969 141.492188 " fill-opacity="1" fill-rule="evenodd"/></g><path fill="#ff914d" d="M 125.230469 136.753906 C 125.453125 138.589844 127.132812 140.078125 128.964844 140.078125 L 129.308594 140.078125 L 129.136719 133.40625 L 128.148438 133.40625 C 126.316406 133.40625 125.007812 134.894531 125.230469 136.730469 Z M 125.230469 136.753906 " fill-opacity="1" fill-rule="evenodd"/><path fill="#ff914d" d="M 117.515625 132.664062 C 119.417969 132.664062 120.777344 131.125 120.53125 129.214844 C 120.285156 127.304688 118.554688 125.769531 116.648438 125.769531 L 112.296875 125.769531 C 110.394531 125.769531 109.03125 127.304688 109.28125 129.214844 C 109.527344 131.125 111.257812 132.664062 113.164062 132.664062 Z M 117.515625 132.664062 " fill-opacity="1" fill-rule="evenodd"/><path fill="#ff914d" d="M 111.257812 142.160156 L 106.90625 142.160156 C 105.003906 142.160156 103.640625 143.699219 103.890625 145.605469 C 104.136719 147.515625 105.867188 149.054688 107.773438 149.054688 L 112.125 149.054688 C 114.027344 149.054688 115.386719 147.515625 115.140625 145.605469 C 114.894531 143.699219 113.164062 142.160156 111.257812 142.160156 Z M 111.257812 142.160156 " fill-opacity="1" fill-rule="evenodd"/><g clip-path="url(#id4)"><path fill="#ff914d" d="M 97.089844 153.589844 C 96.84375 151.683594 95.109375 150.144531 93.207031 150.144531 L 88.878906 150.144531 C 86.976562 150.144531 85.617188 151.683594 85.863281 153.589844 C 86.109375 155.5 87.839844 157.039062 89.746094 157.039062 L 94.074219 157.039062 C 95.976562 157.039062 97.335938 155.5 97.089844 153.589844 Z M 97.089844 153.589844 " fill-opacity="1" fill-rule="evenodd"/></g><path fill="#ff914d" d="M 100.5 163.609375 L 96.148438 163.609375 C 94.246094 163.609375 92.886719 165.148438 93.132812 167.058594 C 93.378906 168.964844 95.109375 170.503906 97.015625 170.503906 L 101.367188 170.503906 C 103.269531 170.503906 104.632812 168.964844 104.382812 167.058594 C 104.136719 165.148438 102.40625 163.609375 100.5 163.609375 Z M 100.5 163.609375 " fill-opacity="1" fill-rule="evenodd"/><path fill="#ff914d" d="M 118.058594 182.40625 L 113.707031 182.40625 C 111.800781 182.40625 110.441406 183.945312 110.691406 185.851562 C 110.9375 187.761719 112.667969 189.300781 114.570312 189.300781 L 118.925781 189.300781 C 120.828125 189.300781 122.1875 187.761719 121.941406 185.851562 C 121.695312 183.945312 119.964844 182.40625 118.058594 182.40625 Z M 118.058594 182.40625 " fill-opacity="1" fill-rule="evenodd"/><g clip-path="url(#id5)"><path fill="#000000" d="M 161.53125 176.652344 C 155.324219 176.652344 150.082031 181.414062 149.808594 187.292969 C 149.539062 193.167969 154.335938 197.929688 160.542969 197.929688 C 166.75 197.929688 171.992188 193.167969 172.261719 187.292969 C 172.535156 181.414062 167.738281 176.652344 161.53125 176.652344 Z M 161.53125 176.652344 " fill-opacity="1" fill-rule="evenodd"/></g><g clip-path="url(#id6)"><path fill="#000000" d="M 229.164062 176.652344 C 222.957031 176.652344 217.714844 181.414062 217.441406 187.292969 C 217.171875 193.167969 221.96875 197.929688 228.175781 197.929688 C 234.382812 197.929688 239.625 193.167969 239.894531 187.292969 C 240.167969 181.414062 235.371094 176.652344 229.164062 176.652344 Z M 229.164062 176.652344 " fill-opacity="1" fill-rule="evenodd"/></g><g fill="#000000" fill-opacity="1"><g transform="translate(87.508927, 240.529084)"><g><path d="M 10.75 0.3125 C 7.851562 0.3125 5.566406 -0.359375 3.890625 -1.703125 C 2.222656 -3.054688 1.390625 -4.875 1.390625 -7.15625 C 1.390625 -7.394531 1.414062 -7.78125 1.46875 -8.3125 L 1.546875 -8.828125 C 1.578125 -9.046875 1.664062 -9.21875 1.8125 -9.34375 C 1.957031 -9.476562 2.132812 -9.546875 2.34375 -9.546875 L 7.25 -9.546875 C 7.457031 -9.546875 7.617188 -9.5 7.734375 -9.40625 C 7.859375 -9.3125 7.90625 -9.203125 7.875 -9.078125 L 7.796875 -8.59375 C 7.691406 -7.75 8.015625 -6.992188 8.765625 -6.328125 C 9.523438 -5.660156 10.570312 -5.328125 11.90625 -5.328125 C 13.125 -5.328125 14.03125 -5.613281 14.625 -6.1875 C 15.21875 -6.757812 15.515625 -7.390625 15.515625 -8.078125 C 15.515625 -8.742188 15.226562 -9.25 14.65625 -9.59375 C 14.09375 -9.9375 13.066406 -10.375 11.578125 -10.90625 C 11.441406 -10.957031 11.300781 -11.007812 11.15625 -11.0625 C 11.007812 -11.113281 10.875 -11.164062 10.75 -11.21875 C 9.289062 -11.75 8.007812 -12.304688 6.90625 -12.890625 C 5.800781 -13.472656 4.863281 -14.269531 4.09375 -15.28125 C 3.320312 -16.289062 2.9375 -17.523438 2.9375 -18.984375 C 2.9375 -19.191406 2.96875 -19.535156 3.03125 -20.015625 C 3.238281 -21.660156 3.832031 -23.097656 4.8125 -24.328125 C 5.789062 -25.566406 7.0625 -26.515625 8.625 -27.171875 C 10.195312 -27.835938 11.925781 -28.171875 13.8125 -28.171875 C 15.644531 -28.171875 17.269531 -27.851562 18.6875 -27.21875 C 20.101562 -26.582031 21.207031 -25.671875 22 -24.484375 C 22.800781 -23.304688 23.203125 -21.953125 23.203125 -20.421875 C 23.203125 -20.179688 23.175781 -19.796875 23.125 -19.265625 L 23.078125 -18.9375 C 23.054688 -18.726562 22.976562 -18.554688 22.84375 -18.421875 C 22.707031 -18.296875 22.535156 -18.234375 22.328125 -18.234375 L 17.390625 -18.234375 C 17.179688 -18.234375 17.015625 -18.269531 16.890625 -18.34375 C 16.773438 -18.425781 16.726562 -18.519531 16.75 -18.625 L 16.796875 -18.984375 L 16.828125 -19.375 C 16.828125 -20.226562 16.472656 -20.96875 15.765625 -21.59375 C 15.066406 -22.21875 14.097656 -22.53125 12.859375 -22.53125 C 11.765625 -22.53125 10.898438 -22.28125 10.265625 -21.78125 C 9.628906 -21.289062 9.3125 -20.609375 9.3125 -19.734375 C 9.3125 -19.253906 9.484375 -18.84375 9.828125 -18.5 C 10.171875 -18.15625 10.6875 -17.832031 11.375 -17.53125 C 12.070312 -17.226562 13.132812 -16.8125 14.5625 -16.28125 C 16.15625 -15.71875 17.410156 -15.21875 18.328125 -14.78125 C 19.242188 -14.34375 20.09375 -13.644531 20.875 -12.6875 C 21.65625 -11.738281 22.046875 -10.519531 22.046875 -9.03125 C 22.046875 -8.84375 22.019531 -8.507812 21.96875 -8.03125 C 21.757812 -6.363281 21.148438 -4.898438 20.140625 -3.640625 C 19.128906 -2.378906 17.8125 -1.40625 16.1875 -0.71875 C 14.570312 -0.03125 12.757812 0.3125 10.75 0.3125 Z M 10.75 0.3125 "/></g></g></g><g fill="#000000" fill-opacity="1"><g transform="translate(110.471733, 240.529084)"><g><path d="M 14.84375 -19.859375 C 14.875 -20.066406 14.953125 -20.238281 15.078125 -20.375 C 15.210938 -20.507812 15.382812 -20.578125 15.59375 -20.578125 L 20.609375 -20.578125 C 20.828125 -20.578125 20.992188 -20.507812 21.109375 -20.375 C 21.234375 -20.238281 21.28125 -20.066406 21.25 -19.859375 L 18.90625 -0.71875 C 18.820312 -0.238281 18.554688 0 18.109375 0 L 13.09375 0 C 12.882812 0 12.722656 -0.0625 12.609375 -0.1875 C 12.503906 -0.320312 12.46875 -0.5 12.5 -0.71875 L 12.609375 -1.71875 C 12.609375 -1.84375 12.582031 -1.914062 12.53125 -1.9375 C 12.476562 -1.96875 12.398438 -1.929688 12.296875 -1.828125 C 11.078125 -0.398438 9.394531 0.3125 7.25 0.3125 C 5.488281 0.3125 4.09375 -0.195312 3.0625 -1.21875 C 2.03125 -2.238281 1.515625 -3.691406 1.515625 -5.578125 C 1.515625 -6.160156 1.539062 -6.609375 1.59375 -6.921875 L 3.1875 -19.859375 C 3.207031 -20.066406 3.285156 -20.238281 3.421875 -20.375 C 3.554688 -20.507812 3.726562 -20.578125 3.9375 -20.578125 L 8.953125 -20.578125 C 9.160156 -20.578125 9.320312 -20.507812 9.4375 -20.375 C 9.5625 -20.238281 9.613281 -20.066406 9.59375 -19.859375 L 8.15625 -8.4375 L 8.125 -7.921875 C 8.125 -7.117188 8.320312 -6.492188 8.71875 -6.046875 C 9.113281 -5.597656 9.671875 -5.375 10.390625 -5.375 C 11.109375 -5.375 11.726562 -5.597656 12.25 -6.046875 C 12.78125 -6.492188 13.15625 -7.09375 13.375 -7.84375 Z M 14.84375 -19.859375 "/></g></g></g><g fill="#000000" fill-opacity="1"><g transform="translate(131.683467, 240.529084)"><g><path d="M 21.40625 -14.765625 C 21.570312 -13.972656 21.65625 -13.148438 21.65625 -12.296875 C 21.65625 -11.847656 21.597656 -11.144531 21.484375 -10.1875 C 21.222656 -8.28125 20.75 -6.609375 20.0625 -5.171875 C 19.257812 -3.523438 18.132812 -2.191406 16.6875 -1.171875 C 15.25 -0.148438 13.707031 0.359375 12.0625 0.359375 C 10.070312 0.359375 8.675781 -0.25 7.875 -1.46875 C 7.800781 -1.570312 7.726562 -1.609375 7.65625 -1.578125 C 7.59375 -1.554688 7.546875 -1.484375 7.515625 -1.359375 L 6.5625 6.5625 C 6.539062 6.78125 6.457031 6.953125 6.3125 7.078125 C 6.164062 7.210938 5.984375 7.28125 5.765625 7.28125 L 0.75 7.28125 C 0.539062 7.28125 0.382812 7.210938 0.28125 7.078125 C 0.175781 6.953125 0.132812 6.78125 0.15625 6.5625 L 3.421875 -19.859375 C 3.453125 -20.066406 3.53125 -20.238281 3.65625 -20.375 C 3.789062 -20.507812 3.960938 -20.578125 4.171875 -20.578125 L 9.1875 -20.578125 C 9.40625 -20.578125 9.570312 -20.507812 9.6875 -20.375 C 9.8125 -20.238281 9.859375 -20.066406 9.828125 -19.859375 L 9.703125 -18.90625 C 9.679688 -18.769531 9.695312 -18.6875 9.75 -18.65625 C 9.800781 -18.632812 9.878906 -18.675781 9.984375 -18.78125 C 11.179688 -20.1875 12.734375 -20.890625 14.640625 -20.890625 C 16.316406 -20.890625 17.789062 -20.316406 19.0625 -19.171875 C 20.332031 -18.035156 21.113281 -16.566406 21.40625 -14.765625 Z M 13.484375 -6.84375 C 14.066406 -7.695312 14.441406 -8.851562 14.609375 -10.3125 C 14.660156 -10.894531 14.6875 -11.316406 14.6875 -11.578125 C 14.6875 -12.347656 14.578125 -13.023438 14.359375 -13.609375 C 13.941406 -14.585938 13.210938 -15.078125 12.171875 -15.078125 C 11.191406 -15.078125 10.382812 -14.578125 9.75 -13.578125 C 9.195312 -12.753906 8.835938 -11.664062 8.671875 -10.3125 C 8.617188 -9.675781 8.59375 -9.238281 8.59375 -9 C 8.59375 -8.144531 8.710938 -7.414062 8.953125 -6.8125 C 9.378906 -5.90625 10.070312 -5.453125 11.03125 -5.453125 C 12.03125 -5.453125 12.847656 -5.914062 13.484375 -6.84375 Z M 13.484375 -6.84375 "/></g></g></g><g fill="#000000" fill-opacity="1"><g transform="translate(153.412566, 240.529084)"><g><path d="M 21.40625 -14.765625 C 21.570312 -13.972656 21.65625 -13.148438 21.65625 -12.296875 C 21.65625 -11.847656 21.597656 -11.144531 21.484375 -10.1875 C 21.222656 -8.28125 20.75 -6.609375 20.0625 -5.171875 C 19.257812 -3.523438 18.132812 -2.191406 16.6875 -1.171875 C 15.25 -0.148438 13.707031 0.359375 12.0625 0.359375 C 10.070312 0.359375 8.675781 -0.25 7.875 -1.46875 C 7.800781 -1.570312 7.726562 -1.609375 7.65625 -1.578125 C 7.59375 -1.554688 7.546875 -1.484375 7.515625 -1.359375 L 6.5625 6.5625 C 6.539062 6.78125 6.457031 6.953125 6.3125 7.078125 C 6.164062 7.210938 5.984375 7.28125 5.765625 7.28125 L 0.75 7.28125 C 0.539062 7.28125 0.382812 7.210938 0.28125 7.078125 C 0.175781 6.953125 0.132812 6.78125 0.15625 6.5625 L 3.421875 -19.859375 C 3.453125 -20.066406 3.53125 -20.238281 3.65625 -20.375 C 3.789062 -20.507812 3.960938 -20.578125 4.171875 -20.578125 L 9.1875 -20.578125 C 9.40625 -20.578125 9.570312 -20.507812 9.6875 -20.375 C 9.8125 -20.238281 9.859375 -20.066406 9.828125 -19.859375 L 9.703125 -18.90625 C 9.679688 -18.769531 9.695312 -18.6875 9.75 -18.65625 C 9.800781 -18.632812 9.878906 -18.675781 9.984375 -18.78125 C 11.179688 -20.1875 12.734375 -20.890625 14.640625 -20.890625 C 16.316406 -20.890625 17.789062 -20.316406 19.0625 -19.171875 C 20.332031 -18.035156 21.113281 -16.566406 21.40625 -14.765625 Z M 13.484375 -6.84375 C 14.066406 -7.695312 14.441406 -8.851562 14.609375 -10.3125 C 14.660156 -10.894531 14.6875 -11.316406 14.6875 -11.578125 C 14.6875 -12.347656 14.578125 -13.023438 14.359375 -13.609375 C 13.941406 -14.585938 13.210938 -15.078125 12.171875 -15.078125 C 11.191406 -15.078125 10.382812 -14.578125 9.75 -13.578125 C 9.195312 -12.753906 8.835938 -11.664062 8.671875 -10.3125 C 8.617188 -9.675781 8.59375 -9.238281 8.59375 -9 C 8.59375 -8.144531 8.710938 -7.414062 8.953125 -6.8125 C 9.378906 -5.90625 10.070312 -5.453125 11.03125 -5.453125 C 12.03125 -5.453125 12.847656 -5.914062 13.484375 -6.84375 Z M 13.484375 -6.84375 "/></g></g></g><g fill="#000000" fill-opacity="1"><g transform="translate(175.141666, 240.529084)"><g><path d="M 1.625 0 C 1.414062 0 1.25 -0.0625 1.125 -0.1875 C 1.007812 -0.320312 0.96875 -0.5 1 -0.71875 L 4.265625 -27.140625 C 4.285156 -27.347656 4.367188 -27.519531 4.515625 -27.65625 C 4.660156 -27.789062 4.835938 -27.859375 5.046875 -27.859375 L 10.0625 -27.859375 C 10.28125 -27.859375 10.441406 -27.789062 10.546875 -27.65625 C 10.648438 -27.519531 10.691406 -27.347656 10.671875 -27.140625 L 7.4375 -0.71875 C 7.363281 -0.238281 7.097656 0 6.640625 0 Z M 1.625 0 "/></g></g></g><g fill="#000000" fill-opacity="1"><g transform="translate(184.971492, 240.529084)"><g><path d="M 0.078125 7.921875 C -0.109375 7.921875 -0.175781 7.679688 -0.125 7.203125 L 0.359375 3.21875 C 0.378906 3.007812 0.421875 2.835938 0.484375 2.703125 C 0.554688 2.566406 0.617188 2.5 0.671875 2.5 L 0.875 2.5 C 2.519531 2.5 3.710938 2.351562 4.453125 2.0625 C 5.203125 1.769531 5.722656 1.148438 6.015625 0.203125 C 6.035156 0.0976562 6.046875 -0.0195312 6.046875 -0.15625 L 2.34375 -19.78125 L 2.34375 -19.9375 C 2.34375 -20.363281 2.554688 -20.578125 2.984375 -20.578125 L 8.390625 -20.578125 C 8.609375 -20.578125 8.773438 -20.515625 8.890625 -20.390625 C 9.015625 -20.273438 9.078125 -20.125 9.078125 -19.9375 L 10.3125 -9.546875 C 10.382812 -9.285156 10.488281 -9.285156 10.625 -9.546875 L 14.328125 -19.9375 C 14.378906 -20.125 14.484375 -20.273438 14.640625 -20.390625 C 14.804688 -20.515625 14.992188 -20.578125 15.203125 -20.578125 L 20.53125 -20.578125 C 20.925781 -20.578125 21.125 -20.414062 21.125 -20.09375 L 21.046875 -19.78125 L 12.140625 0.390625 C 11.234375 2.378906 10.367188 3.882812 9.546875 4.90625 C 8.722656 5.9375 7.609375 6.695312 6.203125 7.1875 C 4.796875 7.675781 2.847656 7.921875 0.359375 7.921875 Z M 0.078125 7.921875 "/></g></g></g><g fill="#000000" fill-opacity="1"><g transform="translate(205.02912, 240.529084)"><g/></g></g><g fill="#ff914d" fill-opacity="1"><g transform="translate(212.741904, 240.529084)"><g><path d="M 10.75 0.3125 C 7.851562 0.3125 5.566406 -0.359375 3.890625 -1.703125 C 2.222656 -3.054688 1.390625 -4.875 1.390625 -7.15625 C 1.390625 -7.394531 1.414062 -7.78125 1.46875 -8.3125 L 1.546875 -8.828125 C 1.578125 -9.046875 1.664062 -9.21875 1.8125 -9.34375 C 1.957031 -9.476562 2.132812 -9.546875 2.34375 -9.546875 L 7.25 -9.546875 C 7.457031 -9.546875 7.617188 -9.5 7.734375 -9.40625 C 7.859375 -9.3125 7.90625 -9.203125 7.875 -9.078125 L 7.796875 -8.59375 C 7.691406 -7.75 8.015625 -6.992188 8.765625 -6.328125 C 9.523438 -5.660156 10.570312 -5.328125 11.90625 -5.328125 C 13.125 -5.328125 14.03125 -5.613281 14.625 -6.1875 C 15.21875 -6.757812 15.515625 -7.390625 15.515625 -8.078125 C 15.515625 -8.742188 15.226562 -9.25 14.65625 -9.59375 C 14.09375 -9.9375 13.066406 -10.375 11.578125 -10.90625 C 11.441406 -10.957031 11.300781 -11.007812 11.15625 -11.0625 C 11.007812 -11.113281 10.875 -11.164062 10.75 -11.21875 C 9.289062 -11.75 8.007812 -12.304688 6.90625 -12.890625 C 5.800781 -13.472656 4.863281 -14.269531 4.09375 -15.28125 C 3.320312 -16.289062 2.9375 -17.523438 2.9375 -18.984375 C 2.9375 -19.191406 2.96875 -19.535156 3.03125 -20.015625 C 3.238281 -21.660156 3.832031 -23.097656 4.8125 -24.328125 C 5.789062 -25.566406 7.0625 -26.515625 8.625 -27.171875 C 10.195312 -27.835938 11.925781 -28.171875 13.8125 -28.171875 C 15.644531 -28.171875 17.269531 -27.851562 18.6875 -27.21875 C 20.101562 -26.582031 21.207031 -25.671875 22 -24.484375 C 22.800781 -23.304688 23.203125 -21.953125 23.203125 -20.421875 C 23.203125 -20.179688 23.175781 -19.796875 23.125 -19.265625 L 23.078125 -18.9375 C 23.054688 -18.726562 22.976562 -18.554688 22.84375 -18.421875 C 22.707031 -18.296875 22.535156 -18.234375 22.328125 -18.234375 L 17.390625 -18.234375 C 17.179688 -18.234375 17.015625 -18.269531 16.890625 -18.34375 C 16.773438 -18.425781 16.726562 -18.519531 16.75 -18.625 L 16.796875 -18.984375 L 16.828125 -19.375 C 16.828125 -20.226562 16.472656 -20.96875 15.765625 -21.59375 C 15.066406 -22.21875 14.097656 -22.53125 12.859375 -22.53125 C 11.765625 -22.53125 10.898438 -22.28125 10.265625 -21.78125 C 9.628906 -21.289062 9.3125 -20.609375 9.3125 -19.734375 C 9.3125 -19.253906 9.484375 -18.84375 9.828125 -18.5 C 10.171875 -18.15625 10.6875 -17.832031 11.375 -17.53125 C 12.070312 -17.226562 13.132812 -16.8125 14.5625 -16.28125 C 16.15625 -15.71875 17.410156 -15.21875 18.328125 -14.78125 C 19.242188 -14.34375 20.09375 -13.644531 20.875 -12.6875 C 21.65625 -11.738281 22.046875 -10.519531 22.046875 -9.03125 C 22.046875 -8.84375 22.019531 -8.507812 21.96875 -8.03125 C 21.757812 -6.363281 21.148438 -4.898438 20.140625 -3.640625 C 19.128906 -2.378906 17.8125 -1.40625 16.1875 -0.71875 C 14.570312 -0.03125 12.757812 0.3125 10.75 0.3125 Z M 10.75 0.3125 "/></g></g></g><g fill="#ff914d" fill-opacity="1"><g transform="translate(235.704709, 240.529084)"><g><path d="M 9.953125 0.3125 C 7.640625 0.3125 5.753906 -0.320312 4.296875 -1.59375 C 2.835938 -2.863281 1.960938 -4.585938 1.671875 -6.765625 C 1.585938 -7.316406 1.546875 -7.890625 1.546875 -8.484375 C 1.546875 -9.085938 1.585938 -9.707031 1.671875 -10.34375 C 1.828125 -11.613281 2.144531 -12.898438 2.625 -14.203125 C 3.5 -16.296875 4.8125 -17.929688 6.5625 -19.109375 C 8.3125 -20.296875 10.328125 -20.890625 12.609375 -20.890625 C 14.867188 -20.890625 16.710938 -20.296875 18.140625 -19.109375 C 19.578125 -17.929688 20.46875 -16.3125 20.8125 -14.25 C 20.914062 -13.632812 20.96875 -12.914062 20.96875 -12.09375 C 20.96875 -11.351562 20.941406 -10.796875 20.890625 -10.421875 C 20.734375 -9.097656 20.441406 -7.929688 20.015625 -6.921875 C 19.222656 -4.691406 17.9375 -2.925781 16.15625 -1.625 C 14.375 -0.332031 12.304688 0.3125 9.953125 0.3125 Z M 10.671875 -5.328125 C 11.410156 -5.328125 12.054688 -5.570312 12.609375 -6.0625 C 13.171875 -6.5625 13.609375 -7.234375 13.921875 -8.078125 C 14.140625 -8.660156 14.316406 -9.414062 14.453125 -10.34375 C 14.503906 -10.925781 14.53125 -11.335938 14.53125 -11.578125 C 14.53125 -12.722656 14.3125 -13.617188 13.875 -14.265625 C 13.4375 -14.910156 12.765625 -15.234375 11.859375 -15.234375 C 10.347656 -15.234375 9.285156 -14.375 8.671875 -12.65625 C 8.378906 -11.988281 8.195312 -11.21875 8.125 -10.34375 C 8.039062 -9.84375 8 -9.351562 8 -8.875 C 8 -7.8125 8.222656 -6.953125 8.671875 -6.296875 C 9.128906 -5.648438 9.796875 -5.328125 10.671875 -5.328125 Z M 10.671875 -5.328125 "/></g></g></g><g fill="#ff914d" fill-opacity="1"><g transform="translate(257.23482, 240.529084)"><g><path d="M 15.484375 -20.609375 C 15.691406 -20.609375 15.847656 -20.539062 15.953125 -20.40625 C 16.066406 -20.28125 16.109375 -20.109375 16.078125 -19.890625 L 15.59375 -15.921875 C 15.519531 -15.441406 15.253906 -15.203125 14.796875 -15.203125 L 11.46875 -15.203125 C 11.40625 -15.203125 11.34375 -15.175781 11.28125 -15.125 C 11.21875 -15.070312 11.1875 -15.003906 11.1875 -14.921875 L 9.4375 -0.71875 C 9.40625 -0.5 9.316406 -0.320312 9.171875 -0.1875 C 9.023438 -0.0625 8.847656 0 8.640625 0 L 3.625 0 C 3.40625 0 3.242188 -0.0625 3.140625 -0.1875 C 3.035156 -0.320312 3 -0.5 3.03125 -0.71875 L 4.78125 -14.921875 C 4.78125 -15.109375 4.695312 -15.203125 4.53125 -15.203125 L 2.671875 -15.203125 C 2.453125 -15.203125 2.289062 -15.265625 2.1875 -15.390625 C 2.082031 -15.523438 2.039062 -15.703125 2.0625 -15.921875 L 2.546875 -19.890625 C 2.628906 -20.367188 2.894531 -20.609375 3.34375 -20.609375 L 5.21875 -20.609375 C 5.269531 -20.609375 5.328125 -20.632812 5.390625 -20.6875 C 5.453125 -20.75 5.484375 -20.816406 5.484375 -20.890625 L 5.609375 -21.890625 C 5.796875 -23.453125 6.210938 -24.675781 6.859375 -25.5625 C 7.515625 -26.457031 8.457031 -27.082031 9.6875 -27.4375 C 10.925781 -27.800781 12.550781 -27.941406 14.5625 -27.859375 L 15.921875 -27.859375 C 16.128906 -27.859375 16.285156 -27.789062 16.390625 -27.65625 C 16.503906 -27.519531 16.546875 -27.347656 16.515625 -27.140625 L 16.15625 -24 C 16.070312 -23.519531 15.804688 -23.28125 15.359375 -23.28125 L 14.09375 -23.28125 C 13.394531 -23.226562 12.882812 -23.054688 12.5625 -22.765625 C 12.25 -22.472656 12.039062 -21.984375 11.9375 -21.296875 L 11.90625 -20.890625 C 11.90625 -20.703125 11.984375 -20.609375 12.140625 -20.609375 Z M 15.484375 -20.609375 "/></g></g></g><g fill="#ff914d" fill-opacity="1"><g transform="translate(272.596411, 240.529084)"><g><path d="M 15.125 -16 C 15.09375 -15.789062 15.003906 -15.617188 14.859375 -15.484375 C 14.710938 -15.347656 14.535156 -15.28125 14.328125 -15.28125 L 11.140625 -15.28125 C 10.984375 -15.28125 10.878906 -15.1875 10.828125 -15 L 9.984375 -8.03125 C 9.960938 -7.875 9.953125 -7.664062 9.953125 -7.40625 C 9.953125 -6.3125 10.457031 -5.765625 11.46875 -5.765625 L 12.6875 -5.765625 C 12.90625 -5.765625 13.066406 -5.695312 13.171875 -5.5625 C 13.273438 -5.4375 13.316406 -5.265625 13.296875 -5.046875 L 12.78125 -0.875 C 12.75 -0.445312 12.492188 -0.207031 12.015625 -0.15625 C 10.847656 -0.101562 10.015625 -0.078125 9.515625 -0.078125 C 7.472656 -0.078125 5.945312 -0.375 4.9375 -0.96875 C 3.925781 -1.570312 3.421875 -2.679688 3.421875 -4.296875 C 3.421875 -4.503906 3.445312 -4.847656 3.5 -5.328125 L 4.703125 -15 L 4.703125 -15.078125 C 4.703125 -15.210938 4.617188 -15.28125 4.453125 -15.28125 L 2.59375 -15.28125 C 2.375 -15.28125 2.203125 -15.347656 2.078125 -15.484375 C 1.960938 -15.617188 1.921875 -15.789062 1.953125 -16 L 2.421875 -19.859375 C 2.503906 -20.335938 2.769531 -20.578125 3.21875 -20.578125 L 5.09375 -20.578125 C 5.175781 -20.578125 5.25 -20.601562 5.3125 -20.65625 C 5.375 -20.707031 5.40625 -20.773438 5.40625 -20.859375 L 5.96875 -25.34375 C 6 -25.5625 6.085938 -25.734375 6.234375 -25.859375 C 6.378906 -25.992188 6.554688 -26.0625 6.765625 -26.0625 L 11.5 -26.0625 C 11.707031 -26.0625 11.863281 -25.992188 11.96875 -25.859375 C 12.082031 -25.734375 12.125 -25.5625 12.09375 -25.34375 L 11.546875 -20.859375 C 11.546875 -20.671875 11.625 -20.578125 11.78125 -20.578125 L 15 -20.578125 C 15.21875 -20.578125 15.378906 -20.507812 15.484375 -20.375 C 15.585938 -20.238281 15.625 -20.066406 15.59375 -19.859375 Z M 15.125 -16 "/></g></g></g></svg>