<svg xmlns="http://www.w3.org/2000/svg" xmlns:xlink="http://www.w3.org/1999/xlink" width="200" zoomAndPan="magnify" viewBox="0 0 150 149.999998" height="200" preserveAspectRatio="xMidYMid meet" version="1.0"><defs><g/><clipPath id="id1"><path d="M 30 0.5 L 100 0.5 L 100 49 L 30 49 Z M 30 0.5 " clip-rule="nonzero"/></clipPath></defs><path fill="#ff914d" d="M 9.523438 50.652344 C 9.328125 49.132812 7.949219 47.90625 6.4375 47.90625 L 2.996094 47.90625 C 1.480469 47.90625 0.398438 49.132812 0.597656 50.652344 C 0.792969 52.175781 2.167969 53.402344 3.683594 53.402344 L 7.125 53.402344 C 8.640625 53.402344 9.71875 52.175781 9.523438 50.652344 Z M 9.523438 50.652344 " fill-opacity="1" fill-rule="evenodd"/><g clip-path="url(#id1)"><path fill="#ff914d" d="M 64.976562 0.5 L 73.316406 18.886719 C 73.453125 19.203125 73.769531 19.417969 74.121094 19.457031 L 98.546875 21.433594 C 99.273438 21.496094 99.804688 20.742188 99.507812 20.050781 L 93.136719 6.015625 C 93 5.71875 92.746094 5.519531 92.429688 5.460938 L 64.996094 0.5 Z M 37.390625 6.015625 L 30.878906 20.011719 C 30.566406 20.703125 31.117188 21.476562 31.863281 21.394531 L 56.324219 18.90625 C 56.679688 18.863281 56.976562 18.648438 57.113281 18.332031 L 64.976562 0.5 L 38.097656 5.460938 C 37.78125 5.519531 37.527344 5.71875 37.390625 6.015625 Z M 65.078125 15.347656 L 65.078125 43.851562 L 87.652344 39.542969 L 87.652344 25.664062 C 87.652344 25.09375 88.164062 24.636719 88.734375 24.695312 L 91.503906 25.132812 C 91.996094 25.191406 92.371094 25.605469 92.371094 26.101562 L 92.371094 42.230469 C 92.371094 42.6875 92.054688 43.082031 91.605469 43.179688 L 66.90625 48.519531 C 65.707031 48.773438 64.46875 48.773438 63.285156 48.519531 L 38.84375 43.359375 C 38.410156 43.261719 38.097656 42.882812 38.078125 42.429688 L 37.664062 26.042969 C 37.644531 25.527344 38.039062 25.09375 38.550781 25.054688 L 59.316406 23.214844 C 59.667969 23.175781 59.984375 22.957031 60.121094 22.621094 L 63.246094 14.992188 C 63.660156 14.003906 65.117188 14.296875 65.117188 15.367188 Z M 65.078125 15.347656 " fill-opacity="1" fill-rule="evenodd"/></g><path fill="#000000" d="M 42.070312 59.3125 L 51.546875 59.3125 C 53.199219 59.3125 54.714844 60.65625 54.929688 62.335938 C 55.125 63.996094 53.964844 65.339844 52.292969 65.339844 L 21.578125 65.339844 C 20.105469 65.339844 19.082031 66.527344 19.257812 67.992188 C 19.433594 69.472656 20.773438 70.640625 22.226562 70.640625 L 38.390625 70.640625 L 38.46875 76.371094 L 48.953125 76.371094 C 49.757812 70.640625 54.96875 66.449219 60.75 66.449219 C 66.511719 66.449219 71.449219 70.660156 71.839844 76.371094 L 89.773438 76.371094 L 89.773438 76.3125 L 100.078125 76.3125 C 101.378906 76.3125 102.558594 75.542969 103.046875 74.394531 L 103.875 72.496094 C 105.722656 68.207031 110.148438 65.363281 114.964844 65.363281 C 119.3125 65.363281 123.183594 67.714844 124.933594 71.429688 L 126.46875 74.671875 C 126.941406 75.679688 127.984375 76.3125 129.164062 76.3125 L 143.714844 76.3125 C 145.132812 76.3125 146.410156 75.402344 146.800781 74.097656 L 147.726562 71.132812 C 148.335938 69.136719 147.390625 67.101562 145.464844 66.269531 L 146.152344 53.894531 C 146.429688 49.03125 145.25 44.25 142.75 40.097656 L 136.832031 31.179688 C 132.683594 24.914062 125.386719 21.199219 117.421875 21.296875 L 106.921875 21.414062 L 102.261719 21.433594 C 101.828125 23.136719 100.238281 24.460938 98.289062 24.300781 L 94.515625 24.003906 C 94.925781 24.617188 95.164062 25.347656 95.164062 26.121094 L 95.164062 42.25 C 95.164062 44.050781 93.925781 45.59375 92.175781 45.988281 L 67.476562 51.324219 C 65.902344 51.660156 64.25 51.679688 62.675781 51.34375 L 54.773438 49.683594 L 41.578125 49.765625 L 38.507812 49.785156 L 29.011719 49.84375 C 27.554688 49.84375 26.515625 51.027344 26.691406 52.492188 C 26.867188 53.953125 28.207031 55.140625 29.660156 55.140625 L 38.214844 55.140625 L 38.273438 59.351562 L 42.089844 59.351562 Z M 106.902344 41.007812 C 105.488281 40.710938 104.523438 39.503906 104.582031 38.121094 L 104.917969 30.964844 C 104.996094 29.261719 106.550781 27.917969 108.320312 28.019531 L 122.125 28.691406 C 125.503906 28.847656 128.515625 30.609375 130.125 33.394531 L 135.769531 43.160156 C 136.734375 44.820312 135.082031 46.859375 133.117188 46.460938 L 106.902344 41.046875 Z M 106.902344 41.007812 " fill-opacity="1" fill-rule="evenodd"/><path fill="#ff914d" d="M 31.902344 37.230469 C 32.078125 38.691406 33.417969 39.878906 34.871094 39.878906 L 35.148438 39.878906 L 35.007812 34.5625 L 34.222656 34.5625 C 32.765625 34.5625 31.726562 35.746094 31.902344 37.210938 Z M 31.902344 37.230469 " fill-opacity="1" fill-rule="evenodd"/><path fill="#ff914d" d="M 25.765625 33.96875 C 27.28125 33.96875 28.363281 32.742188 28.167969 31.21875 C 27.96875 29.699219 26.59375 28.472656 25.078125 28.472656 L 21.617188 28.472656 C 20.105469 28.472656 19.023438 29.699219 19.21875 31.21875 C 19.414062 32.742188 20.792969 33.96875 22.304688 33.96875 Z M 25.765625 33.96875 " fill-opacity="1" fill-rule="evenodd"/><path fill="#ff914d" d="M 20.792969 41.539062 L 17.332031 41.539062 C 15.816406 41.539062 14.734375 42.765625 14.933594 44.289062 C 15.128906 45.808594 16.503906 47.035156 18.019531 47.035156 L 21.480469 47.035156 C 22.996094 47.035156 24.074219 45.808594 23.878906 44.289062 C 23.683594 42.765625 22.304688 41.539062 20.792969 41.539062 Z M 20.792969 41.539062 " fill-opacity="1" fill-rule="evenodd"/><path fill="#ff914d" d="M 9.523438 50.652344 C 9.328125 49.132812 7.949219 47.90625 6.4375 47.90625 L 2.996094 47.90625 C 1.480469 47.90625 0.398438 49.132812 0.597656 50.652344 C 0.792969 52.175781 2.167969 53.402344 3.683594 53.402344 L 7.125 53.402344 C 8.640625 53.402344 9.71875 52.175781 9.523438 50.652344 Z M 9.523438 50.652344 " fill-opacity="1" fill-rule="evenodd"/><path fill="#ff914d" d="M 12.238281 58.640625 L 8.777344 58.640625 C 7.261719 58.640625 6.179688 59.867188 6.378906 61.386719 C 6.574219 62.910156 7.949219 64.136719 9.464844 64.136719 L 12.925781 64.136719 C 14.441406 64.136719 15.523438 62.910156 15.324219 61.386719 C 15.128906 59.867188 13.75 58.640625 12.238281 58.640625 Z M 12.238281 58.640625 " fill-opacity="1" fill-rule="evenodd"/><path fill="#ff914d" d="M 26.199219 73.625 L 22.738281 73.625 C 21.222656 73.625 20.144531 74.851562 20.339844 76.371094 C 20.535156 77.894531 21.914062 79.121094 23.425781 79.121094 L 26.886719 79.121094 C 28.402344 79.121094 29.484375 77.894531 29.285156 76.371094 C 29.089844 74.851562 27.714844 73.625 26.199219 73.625 Z M 26.199219 73.625 " fill-opacity="1" fill-rule="evenodd"/><path fill="#000000" d="M 60.769531 69.039062 C 55.835938 69.039062 51.664062 72.832031 51.449219 77.519531 C 51.234375 82.203125 55.046875 86 59.984375 86 C 64.917969 86 69.089844 82.203125 69.304688 77.519531 C 69.519531 72.835938 65.707031 69.039062 60.769531 69.039062 Z M 60.769531 69.039062 " fill-opacity="1" fill-rule="evenodd"/><path fill="#000000" d="M 114.550781 69.039062 C 109.617188 69.039062 105.449219 72.832031 105.230469 77.519531 C 105.015625 82.203125 108.832031 86 113.765625 86 C 118.703125 86 122.871094 82.203125 123.085938 77.519531 C 123.304688 72.835938 119.488281 69.039062 114.550781 69.039062 Z M 114.550781 69.039062 " fill-opacity="1" fill-rule="evenodd"/><g fill="#000000" fill-opacity="1"><g transform="translate(-0.266913, 118.965369)"><g><path d="M 8.03125 0.234375 C 5.863281 0.234375 4.15625 -0.269531 2.90625 -1.28125 C 1.664062 -2.289062 1.046875 -3.644531 1.046875 -5.34375 C 1.046875 -5.519531 1.0625 -5.8125 1.09375 -6.21875 L 1.15625 -6.59375 C 1.175781 -6.75 1.238281 -6.875 1.34375 -6.96875 C 1.457031 -7.070312 1.59375 -7.125 1.75 -7.125 L 5.40625 -7.125 C 5.5625 -7.125 5.679688 -7.085938 5.765625 -7.015625 C 5.859375 -6.953125 5.898438 -6.875 5.890625 -6.78125 L 5.828125 -6.421875 C 5.742188 -5.785156 5.984375 -5.21875 6.546875 -4.71875 C 7.117188 -4.226562 7.898438 -3.984375 8.890625 -3.984375 C 9.796875 -3.984375 10.472656 -4.195312 10.921875 -4.625 C 11.367188 -5.050781 11.59375 -5.519531 11.59375 -6.03125 C 11.59375 -6.53125 11.378906 -6.90625 10.953125 -7.15625 C 10.523438 -7.414062 9.753906 -7.742188 8.640625 -8.140625 C 8.546875 -8.179688 8.441406 -8.222656 8.328125 -8.265625 C 8.222656 -8.304688 8.125 -8.34375 8.03125 -8.375 C 6.9375 -8.769531 5.976562 -9.1875 5.15625 -9.625 C 4.332031 -10.0625 3.632812 -10.65625 3.0625 -11.40625 C 2.488281 -12.164062 2.203125 -13.085938 2.203125 -14.171875 C 2.203125 -14.328125 2.222656 -14.585938 2.265625 -14.953125 C 2.421875 -16.179688 2.863281 -17.253906 3.59375 -18.171875 C 4.332031 -19.097656 5.285156 -19.804688 6.453125 -20.296875 C 7.617188 -20.796875 8.90625 -21.046875 10.3125 -21.046875 C 11.675781 -21.046875 12.890625 -20.804688 13.953125 -20.328125 C 15.015625 -19.847656 15.84375 -19.164062 16.4375 -18.28125 C 17.03125 -17.40625 17.328125 -16.394531 17.328125 -15.25 C 17.328125 -15.070312 17.304688 -14.785156 17.265625 -14.390625 L 17.234375 -14.140625 C 17.210938 -13.984375 17.148438 -13.851562 17.046875 -13.75 C 16.953125 -13.65625 16.828125 -13.609375 16.671875 -13.609375 L 12.984375 -13.609375 C 12.828125 -13.609375 12.703125 -13.640625 12.609375 -13.703125 C 12.523438 -13.765625 12.492188 -13.832031 12.515625 -13.90625 L 12.546875 -14.171875 L 12.578125 -14.46875 C 12.578125 -15.101562 12.3125 -15.65625 11.78125 -16.125 C 11.257812 -16.59375 10.53125 -16.828125 9.59375 -16.828125 C 8.78125 -16.828125 8.132812 -16.640625 7.65625 -16.265625 C 7.1875 -15.898438 6.953125 -15.390625 6.953125 -14.734375 C 6.953125 -14.378906 7.082031 -14.070312 7.34375 -13.8125 C 7.601562 -13.5625 7.988281 -13.320312 8.5 -13.09375 C 9.007812 -12.863281 9.800781 -12.550781 10.875 -12.15625 C 12.0625 -11.738281 12.992188 -11.363281 13.671875 -11.03125 C 14.359375 -10.707031 14.992188 -10.1875 15.578125 -9.46875 C 16.171875 -8.757812 16.46875 -7.851562 16.46875 -6.75 C 16.46875 -6.601562 16.445312 -6.351562 16.40625 -6 C 16.25 -4.75 15.789062 -3.65625 15.03125 -2.71875 C 14.28125 -1.78125 13.300781 -1.050781 12.09375 -0.53125 C 10.882812 -0.0195312 9.53125 0.234375 8.03125 0.234375 Z M 8.03125 0.234375 "/></g></g></g><g fill="#000000" fill-opacity="1"><g transform="translate(16.87407, 118.965369)"><g><path d="M 11.078125 -14.828125 C 11.097656 -14.984375 11.15625 -15.109375 11.25 -15.203125 C 11.351562 -15.304688 11.488281 -15.359375 11.65625 -15.359375 L 15.390625 -15.359375 C 15.546875 -15.359375 15.671875 -15.304688 15.765625 -15.203125 C 15.859375 -15.109375 15.894531 -14.984375 15.875 -14.828125 L 14.109375 -0.53125 C 14.054688 -0.175781 13.859375 0 13.515625 0 L 9.78125 0 C 9.625 0 9.503906 -0.046875 9.421875 -0.140625 C 9.335938 -0.242188 9.304688 -0.375 9.328125 -0.53125 L 9.421875 -1.28125 C 9.421875 -1.375 9.398438 -1.429688 9.359375 -1.453125 C 9.316406 -1.472656 9.257812 -1.441406 9.1875 -1.359375 C 8.269531 -0.296875 7.007812 0.234375 5.40625 0.234375 C 4.101562 0.234375 3.0625 -0.144531 2.28125 -0.90625 C 1.507812 -1.664062 1.125 -2.75 1.125 -4.15625 C 1.125 -4.59375 1.144531 -4.929688 1.1875 -5.171875 L 2.375 -14.828125 C 2.394531 -14.984375 2.453125 -15.109375 2.546875 -15.203125 C 2.648438 -15.304688 2.78125 -15.359375 2.9375 -15.359375 L 6.6875 -15.359375 C 6.84375 -15.359375 6.960938 -15.304688 7.046875 -15.203125 C 7.140625 -15.109375 7.175781 -14.984375 7.15625 -14.828125 L 6.09375 -6.296875 L 6.0625 -5.90625 C 6.0625 -5.3125 6.207031 -4.847656 6.5 -4.515625 C 6.800781 -4.179688 7.21875 -4.015625 7.75 -4.015625 C 8.289062 -4.015625 8.757812 -4.179688 9.15625 -4.515625 C 9.550781 -4.847656 9.828125 -5.296875 9.984375 -5.859375 Z M 11.078125 -14.828125 "/></g></g></g><g fill="#000000" fill-opacity="1"><g transform="translate(32.707943, 118.965369)"><g><path d="M 15.984375 -11.03125 C 16.109375 -10.4375 16.171875 -9.820312 16.171875 -9.1875 C 16.171875 -8.84375 16.128906 -8.316406 16.046875 -7.609375 C 15.847656 -6.179688 15.492188 -4.929688 14.984375 -3.859375 C 14.390625 -2.628906 13.550781 -1.632812 12.46875 -0.875 C 11.382812 -0.113281 10.226562 0.265625 9 0.265625 C 7.519531 0.265625 6.484375 -0.1875 5.890625 -1.09375 C 5.828125 -1.175781 5.769531 -1.207031 5.71875 -1.1875 C 5.664062 -1.164062 5.628906 -1.109375 5.609375 -1.015625 L 4.90625 4.90625 C 4.882812 5.0625 4.816406 5.1875 4.703125 5.28125 C 4.597656 5.382812 4.46875 5.4375 4.3125 5.4375 L 0.5625 5.4375 C 0.40625 5.4375 0.285156 5.382812 0.203125 5.28125 C 0.128906 5.1875 0.101562 5.0625 0.125 4.90625 L 2.5625 -14.828125 C 2.570312 -14.984375 2.625 -15.109375 2.71875 -15.203125 C 2.820312 -15.304688 2.957031 -15.359375 3.125 -15.359375 L 6.859375 -15.359375 C 7.023438 -15.359375 7.148438 -15.304688 7.234375 -15.203125 C 7.328125 -15.109375 7.363281 -14.984375 7.34375 -14.828125 L 7.25 -14.109375 C 7.226562 -14.015625 7.238281 -13.957031 7.28125 -13.9375 C 7.320312 -13.914062 7.378906 -13.945312 7.453125 -14.03125 C 8.347656 -15.082031 9.507812 -15.609375 10.9375 -15.609375 C 12.1875 -15.609375 13.285156 -15.179688 14.234375 -14.328125 C 15.179688 -13.472656 15.765625 -12.375 15.984375 -11.03125 Z M 10.078125 -5.109375 C 10.515625 -5.742188 10.789062 -6.609375 10.90625 -7.703125 C 10.945312 -8.128906 10.96875 -8.441406 10.96875 -8.640625 C 10.96875 -9.222656 10.890625 -9.726562 10.734375 -10.15625 C 10.410156 -10.894531 9.863281 -11.265625 9.09375 -11.265625 C 8.363281 -11.265625 7.757812 -10.890625 7.28125 -10.140625 C 6.863281 -9.523438 6.597656 -8.710938 6.484375 -7.703125 C 6.441406 -7.222656 6.421875 -6.894531 6.421875 -6.71875 C 6.421875 -6.082031 6.507812 -5.535156 6.6875 -5.078125 C 7 -4.410156 7.515625 -4.078125 8.234375 -4.078125 C 8.984375 -4.078125 9.597656 -4.421875 10.078125 -5.109375 Z M 10.078125 -5.109375 "/></g></g></g><g fill="#000000" fill-opacity="1"><g transform="translate(48.928008, 118.965369)"><g><path d="M 15.984375 -11.03125 C 16.109375 -10.4375 16.171875 -9.820312 16.171875 -9.1875 C 16.171875 -8.84375 16.128906 -8.316406 16.046875 -7.609375 C 15.847656 -6.179688 15.492188 -4.929688 14.984375 -3.859375 C 14.390625 -2.628906 13.550781 -1.632812 12.46875 -0.875 C 11.382812 -0.113281 10.226562 0.265625 9 0.265625 C 7.519531 0.265625 6.484375 -0.1875 5.890625 -1.09375 C 5.828125 -1.175781 5.769531 -1.207031 5.71875 -1.1875 C 5.664062 -1.164062 5.628906 -1.109375 5.609375 -1.015625 L 4.90625 4.90625 C 4.882812 5.0625 4.816406 5.1875 4.703125 5.28125 C 4.597656 5.382812 4.46875 5.4375 4.3125 5.4375 L 0.5625 5.4375 C 0.40625 5.4375 0.285156 5.382812 0.203125 5.28125 C 0.128906 5.1875 0.101562 5.0625 0.125 4.90625 L 2.5625 -14.828125 C 2.570312 -14.984375 2.625 -15.109375 2.71875 -15.203125 C 2.820312 -15.304688 2.957031 -15.359375 3.125 -15.359375 L 6.859375 -15.359375 C 7.023438 -15.359375 7.148438 -15.304688 7.234375 -15.203125 C 7.328125 -15.109375 7.363281 -14.984375 7.34375 -14.828125 L 7.25 -14.109375 C 7.226562 -14.015625 7.238281 -13.957031 7.28125 -13.9375 C 7.320312 -13.914062 7.378906 -13.945312 7.453125 -14.03125 C 8.347656 -15.082031 9.507812 -15.609375 10.9375 -15.609375 C 12.1875 -15.609375 13.285156 -15.179688 14.234375 -14.328125 C 15.179688 -13.472656 15.765625 -12.375 15.984375 -11.03125 Z M 10.078125 -5.109375 C 10.515625 -5.742188 10.789062 -6.609375 10.90625 -7.703125 C 10.945312 -8.128906 10.96875 -8.441406 10.96875 -8.640625 C 10.96875 -9.222656 10.890625 -9.726562 10.734375 -10.15625 C 10.410156 -10.894531 9.863281 -11.265625 9.09375 -11.265625 C 8.363281 -11.265625 7.757812 -10.890625 7.28125 -10.140625 C 6.863281 -9.523438 6.597656 -8.710938 6.484375 -7.703125 C 6.441406 -7.222656 6.421875 -6.894531 6.421875 -6.71875 C 6.421875 -6.082031 6.507812 -5.535156 6.6875 -5.078125 C 7 -4.410156 7.515625 -4.078125 8.234375 -4.078125 C 8.984375 -4.078125 9.597656 -4.421875 10.078125 -5.109375 Z M 10.078125 -5.109375 "/></g></g></g><g fill="#000000" fill-opacity="1"><g transform="translate(65.148073, 118.965369)"><g><path d="M 1.21875 0 C 1.0625 0 0.9375 -0.046875 0.84375 -0.140625 C 0.757812 -0.242188 0.726562 -0.375 0.75 -0.53125 L 3.1875 -20.265625 C 3.195312 -20.421875 3.253906 -20.546875 3.359375 -20.640625 C 3.472656 -20.742188 3.613281 -20.796875 3.78125 -20.796875 L 7.515625 -20.796875 C 7.671875 -20.796875 7.789062 -20.742188 7.875 -20.640625 C 7.957031 -20.546875 7.988281 -20.421875 7.96875 -20.265625 L 5.5625 -0.53125 C 5.5 -0.175781 5.300781 0 4.96875 0 Z M 1.21875 0 "/></g></g></g><g fill="#000000" fill-opacity="1"><g transform="translate(72.485716, 118.965369)"><g><path d="M 0.0625 5.90625 C -0.0820312 5.90625 -0.132812 5.726562 -0.09375 5.375 L 0.265625 2.40625 C 0.285156 2.25 0.320312 2.117188 0.375 2.015625 C 0.425781 1.921875 0.46875 1.875 0.5 1.875 L 0.65625 1.875 C 1.882812 1.875 2.773438 1.765625 3.328125 1.546875 C 3.878906 1.328125 4.265625 0.863281 4.484375 0.15625 C 4.503906 0.0703125 4.515625 -0.0195312 4.515625 -0.125 L 1.75 -14.765625 L 1.75 -14.890625 C 1.75 -15.203125 1.910156 -15.359375 2.234375 -15.359375 L 6.265625 -15.359375 C 6.429688 -15.359375 6.554688 -15.3125 6.640625 -15.21875 C 6.734375 -15.132812 6.78125 -15.023438 6.78125 -14.890625 L 7.703125 -7.125 C 7.753906 -6.925781 7.832031 -6.925781 7.9375 -7.125 L 10.703125 -14.890625 C 10.742188 -15.023438 10.820312 -15.132812 10.9375 -15.21875 C 11.050781 -15.3125 11.191406 -15.359375 11.359375 -15.359375 L 15.328125 -15.359375 C 15.628906 -15.359375 15.78125 -15.242188 15.78125 -15.015625 L 15.71875 -14.765625 L 9.0625 0.296875 C 8.382812 1.785156 7.738281 2.910156 7.125 3.671875 C 6.519531 4.429688 5.691406 4.992188 4.640625 5.359375 C 3.585938 5.722656 2.128906 5.90625 0.265625 5.90625 Z M 0.0625 5.90625 "/></g></g></g><g fill="#000000" fill-opacity="1"><g transform="translate(87.458077, 118.965369)"><g/></g></g><g fill="#ff914d" fill-opacity="1"><g transform="translate(93.21355, 118.965369)"><g><path d="M 8.03125 0.234375 C 5.863281 0.234375 4.15625 -0.269531 2.90625 -1.28125 C 1.664062 -2.289062 1.046875 -3.644531 1.046875 -5.34375 C 1.046875 -5.519531 1.0625 -5.8125 1.09375 -6.21875 L 1.15625 -6.59375 C 1.175781 -6.75 1.238281 -6.875 1.34375 -6.96875 C 1.457031 -7.070312 1.59375 -7.125 1.75 -7.125 L 5.40625 -7.125 C 5.5625 -7.125 5.679688 -7.085938 5.765625 -7.015625 C 5.859375 -6.953125 5.898438 -6.875 5.890625 -6.78125 L 5.828125 -6.421875 C 5.742188 -5.785156 5.984375 -5.21875 6.546875 -4.71875 C 7.117188 -4.226562 7.898438 -3.984375 8.890625 -3.984375 C 9.796875 -3.984375 10.472656 -4.195312 10.921875 -4.625 C 11.367188 -5.050781 11.59375 -5.519531 11.59375 -6.03125 C 11.59375 -6.53125 11.378906 -6.90625 10.953125 -7.15625 C 10.523438 -7.414062 9.753906 -7.742188 8.640625 -8.140625 C 8.546875 -8.179688 8.441406 -8.222656 8.328125 -8.265625 C 8.222656 -8.304688 8.125 -8.34375 8.03125 -8.375 C 6.9375 -8.769531 5.976562 -9.1875 5.15625 -9.625 C 4.332031 -10.0625 3.632812 -10.65625 3.0625 -11.40625 C 2.488281 -12.164062 2.203125 -13.085938 2.203125 -14.171875 C 2.203125 -14.328125 2.222656 -14.585938 2.265625 -14.953125 C 2.421875 -16.179688 2.863281 -17.253906 3.59375 -18.171875 C 4.332031 -19.097656 5.285156 -19.804688 6.453125 -20.296875 C 7.617188 -20.796875 8.90625 -21.046875 10.3125 -21.046875 C 11.675781 -21.046875 12.890625 -20.804688 13.953125 -20.328125 C 15.015625 -19.847656 15.84375 -19.164062 16.4375 -18.28125 C 17.03125 -17.40625 17.328125 -16.394531 17.328125 -15.25 C 17.328125 -15.070312 17.304688 -14.785156 17.265625 -14.390625 L 17.234375 -14.140625 C 17.210938 -13.984375 17.148438 -13.851562 17.046875 -13.75 C 16.953125 -13.65625 16.828125 -13.609375 16.671875 -13.609375 L 12.984375 -13.609375 C 12.828125 -13.609375 12.703125 -13.640625 12.609375 -13.703125 C 12.523438 -13.765625 12.492188 -13.832031 12.515625 -13.90625 L 12.546875 -14.171875 L 12.578125 -14.46875 C 12.578125 -15.101562 12.3125 -15.65625 11.78125 -16.125 C 11.257812 -16.59375 10.53125 -16.828125 9.59375 -16.828125 C 8.78125 -16.828125 8.132812 -16.640625 7.65625 -16.265625 C 7.1875 -15.898438 6.953125 -15.390625 6.953125 -14.734375 C 6.953125 -14.378906 7.082031 -14.070312 7.34375 -13.8125 C 7.601562 -13.5625 7.988281 -13.320312 8.5 -13.09375 C 9.007812 -12.863281 9.800781 -12.550781 10.875 -12.15625 C 12.0625 -11.738281 12.992188 -11.363281 13.671875 -11.03125 C 14.359375 -10.707031 14.992188 -10.1875 15.578125 -9.46875 C 16.171875 -8.757812 16.46875 -7.851562 16.46875 -6.75 C 16.46875 -6.601562 16.445312 -6.351562 16.40625 -6 C 16.25 -4.75 15.789062 -3.65625 15.03125 -2.71875 C 14.28125 -1.78125 13.300781 -1.050781 12.09375 -0.53125 C 10.882812 -0.0195312 9.53125 0.234375 8.03125 0.234375 Z M 8.03125 0.234375 "/></g></g></g><g fill="#ff914d" fill-opacity="1"><g transform="translate(110.354533, 118.965369)"><g><path d="M 7.421875 0.234375 C 5.703125 0.234375 4.296875 -0.238281 3.203125 -1.1875 C 2.117188 -2.132812 1.46875 -3.421875 1.25 -5.046875 C 1.1875 -5.460938 1.15625 -5.890625 1.15625 -6.328125 C 1.15625 -6.785156 1.1875 -7.253906 1.25 -7.734375 C 1.363281 -8.679688 1.601562 -9.640625 1.96875 -10.609375 C 2.613281 -12.171875 3.585938 -13.394531 4.890625 -14.28125 C 6.203125 -15.164062 7.710938 -15.609375 9.421875 -15.609375 C 11.109375 -15.609375 12.484375 -15.164062 13.546875 -14.28125 C 14.617188 -13.394531 15.285156 -12.179688 15.546875 -10.640625 C 15.617188 -10.179688 15.65625 -9.644531 15.65625 -9.03125 C 15.65625 -8.476562 15.640625 -8.0625 15.609375 -7.78125 C 15.484375 -6.789062 15.265625 -5.921875 14.953125 -5.171875 C 14.359375 -3.503906 13.394531 -2.1875 12.0625 -1.21875 C 10.738281 -0.25 9.191406 0.234375 7.421875 0.234375 Z M 7.96875 -3.984375 C 8.519531 -3.984375 9.003906 -4.164062 9.421875 -4.53125 C 9.835938 -4.894531 10.164062 -5.394531 10.40625 -6.03125 C 10.5625 -6.46875 10.6875 -7.035156 10.78125 -7.734375 C 10.820312 -8.160156 10.84375 -8.460938 10.84375 -8.640625 C 10.84375 -9.492188 10.675781 -10.160156 10.34375 -10.640625 C 10.019531 -11.128906 9.523438 -11.375 8.859375 -11.375 C 7.722656 -11.375 6.929688 -10.734375 6.484375 -9.453125 C 6.265625 -8.953125 6.125 -8.378906 6.0625 -7.734375 C 6 -7.347656 5.96875 -6.976562 5.96875 -6.625 C 5.96875 -5.832031 6.132812 -5.191406 6.46875 -4.703125 C 6.8125 -4.222656 7.3125 -3.984375 7.96875 -3.984375 Z M 7.96875 -3.984375 "/></g></g></g><g fill="#ff914d" fill-opacity="1"><g transform="translate(126.426054, 118.965369)"><g><path d="M 11.5625 -15.390625 C 11.71875 -15.390625 11.832031 -15.335938 11.90625 -15.234375 C 11.988281 -15.140625 12.019531 -15.015625 12 -14.859375 L 11.65625 -11.890625 C 11.59375 -11.535156 11.394531 -11.359375 11.0625 -11.359375 L 8.5625 -11.359375 C 8.519531 -11.359375 8.472656 -11.335938 8.421875 -11.296875 C 8.367188 -11.253906 8.34375 -11.203125 8.34375 -11.140625 L 7.046875 -0.53125 C 7.023438 -0.375 6.957031 -0.242188 6.84375 -0.140625 C 6.738281 -0.046875 6.609375 0 6.453125 0 L 2.703125 0 C 2.546875 0 2.425781 -0.046875 2.34375 -0.140625 C 2.269531 -0.242188 2.242188 -0.375 2.265625 -0.53125 L 3.5625 -11.140625 C 3.5625 -11.285156 3.503906 -11.359375 3.390625 -11.359375 L 1.984375 -11.359375 C 1.828125 -11.359375 1.707031 -11.40625 1.625 -11.5 C 1.550781 -11.601562 1.523438 -11.734375 1.546875 -11.890625 L 1.90625 -14.859375 C 1.957031 -15.210938 2.15625 -15.390625 2.5 -15.390625 L 3.890625 -15.390625 C 3.929688 -15.390625 3.972656 -15.410156 4.015625 -15.453125 C 4.066406 -15.492188 4.09375 -15.546875 4.09375 -15.609375 L 4.1875 -16.34375 C 4.320312 -17.507812 4.632812 -18.425781 5.125 -19.09375 C 5.613281 -19.757812 6.316406 -20.222656 7.234375 -20.484375 C 8.160156 -20.753906 9.375 -20.859375 10.875 -20.796875 L 11.890625 -20.796875 C 12.046875 -20.796875 12.160156 -20.742188 12.234375 -20.640625 C 12.316406 -20.546875 12.347656 -20.421875 12.328125 -20.265625 L 12.0625 -17.921875 C 12.007812 -17.566406 11.8125 -17.390625 11.46875 -17.390625 L 10.515625 -17.390625 C 10.003906 -17.347656 9.628906 -17.21875 9.390625 -17 C 9.148438 -16.78125 8.992188 -16.414062 8.921875 -15.90625 L 8.890625 -15.609375 C 8.890625 -15.460938 8.945312 -15.390625 9.0625 -15.390625 Z M 11.5625 -15.390625 "/></g></g></g><g fill="#ff914d" fill-opacity="1"><g transform="translate(137.892988, 118.965369)"><g><path d="M 11.296875 -11.953125 C 11.273438 -11.785156 11.207031 -11.648438 11.09375 -11.546875 C 10.988281 -11.453125 10.859375 -11.40625 10.703125 -11.40625 L 8.328125 -11.40625 C 8.203125 -11.40625 8.117188 -11.335938 8.078125 -11.203125 L 7.453125 -6 C 7.429688 -5.882812 7.421875 -5.726562 7.421875 -5.53125 C 7.421875 -4.71875 7.800781 -4.3125 8.5625 -4.3125 L 9.484375 -4.3125 C 9.640625 -4.3125 9.753906 -4.257812 9.828125 -4.15625 C 9.910156 -4.0625 9.941406 -3.9375 9.921875 -3.78125 L 9.546875 -0.65625 C 9.523438 -0.332031 9.332031 -0.15625 8.96875 -0.125 C 8.101562 -0.0820312 7.484375 -0.0625 7.109375 -0.0625 C 5.578125 -0.0625 4.4375 -0.28125 3.6875 -0.71875 C 2.9375 -1.164062 2.5625 -1.992188 2.5625 -3.203125 C 2.5625 -3.367188 2.578125 -3.628906 2.609375 -3.984375 L 3.5 -11.203125 L 3.5 -11.265625 C 3.5 -11.359375 3.441406 -11.40625 3.328125 -11.40625 L 1.9375 -11.40625 C 1.769531 -11.40625 1.640625 -11.453125 1.546875 -11.546875 C 1.460938 -11.648438 1.429688 -11.785156 1.453125 -11.953125 L 1.8125 -14.828125 C 1.875 -15.179688 2.070312 -15.359375 2.40625 -15.359375 L 3.796875 -15.359375 C 3.859375 -15.359375 3.914062 -15.378906 3.96875 -15.421875 C 4.019531 -15.460938 4.046875 -15.515625 4.046875 -15.578125 L 4.453125 -18.9375 C 4.472656 -19.09375 4.535156 -19.21875 4.640625 -19.3125 C 4.753906 -19.414062 4.890625 -19.46875 5.046875 -19.46875 L 8.59375 -19.46875 C 8.75 -19.46875 8.863281 -19.414062 8.9375 -19.3125 C 9.019531 -19.21875 9.050781 -19.09375 9.03125 -18.9375 L 8.625 -15.578125 C 8.625 -15.429688 8.679688 -15.359375 8.796875 -15.359375 L 11.203125 -15.359375 C 11.359375 -15.359375 11.472656 -15.304688 11.546875 -15.203125 C 11.628906 -15.109375 11.664062 -14.984375 11.65625 -14.828125 Z M 11.296875 -11.953125 "/></g></g></g></svg>