<svg xmlns="http://www.w3.org/2000/svg" xmlns:xlink="http://www.w3.org/1999/xlink" width="200" zoomAndPan="magnify" viewBox="0 0 150 149.999998" height="200" preserveAspectRatio="xMidYMid meet" version="1.0"><defs><g/><clipPath id="id1"><path d="M 11 57.285156 L 37 57.285156 L 37 76 L 11 76 Z M 11 57.285156 " clip-rule="nonzero"/></clipPath><clipPath id="id2"><path d="M 7 64 L 54.75 64 L 54.75 86 L 7 86 Z M 7 64 " clip-rule="nonzero"/></clipPath><clipPath id="id3"><path d="M 18 82 L 26 82 L 26 88.785156 L 18 88.785156 Z M 18 82 " clip-rule="nonzero"/></clipPath><clipPath id="id4"><path d="M 38 82 L 46 82 L 46 88.785156 L 38 88.785156 Z M 38 82 " clip-rule="nonzero"/></clipPath></defs><path fill="#ff914d" d="M 3.515625 75.761719 C 3.441406 75.199219 2.933594 74.75 2.378906 74.75 L 1.109375 74.75 C 0.550781 74.75 0.152344 75.199219 0.222656 75.761719 C 0.296875 76.324219 0.804688 76.773438 1.363281 76.773438 L 2.632812 76.773438 C 3.1875 76.773438 3.585938 76.324219 3.515625 75.761719 Z M 3.515625 75.761719 " fill-opacity="1" fill-rule="evenodd"/><g clip-path="url(#id1)"><path fill="#ff914d" d="M 23.957031 57.285156 L 27.03125 64.058594 C 27.082031 64.175781 27.199219 64.253906 27.328125 64.269531 L 36.332031 64.996094 C 36.597656 65.019531 36.792969 64.742188 36.6875 64.488281 L 34.335938 59.316406 C 34.285156 59.207031 34.191406 59.132812 34.078125 59.113281 L 23.964844 57.285156 Z M 13.785156 59.316406 L 11.386719 64.472656 C 11.273438 64.726562 11.472656 65.011719 11.75 64.984375 L 20.769531 64.066406 C 20.898438 64.050781 21.007812 63.96875 21.058594 63.855469 L 23.957031 57.285156 L 14.046875 59.113281 C 13.933594 59.132812 13.835938 59.207031 13.785156 59.316406 Z M 23.992188 62.753906 L 23.992188 73.257812 L 32.316406 71.667969 L 32.316406 66.554688 C 32.316406 66.34375 32.503906 66.175781 32.714844 66.199219 L 33.734375 66.359375 C 33.917969 66.382812 34.054688 66.535156 34.054688 66.714844 L 34.054688 72.660156 C 34.054688 72.828125 33.9375 72.972656 33.773438 73.007812 L 24.667969 74.976562 C 24.226562 75.070312 23.769531 75.070312 23.332031 74.976562 L 14.324219 73.074219 C 14.164062 73.039062 14.046875 72.898438 14.039062 72.730469 L 13.886719 66.695312 C 13.882812 66.503906 14.027344 66.34375 14.214844 66.332031 L 21.871094 65.652344 C 22 65.636719 22.117188 65.558594 22.167969 65.433594 L 23.320312 62.621094 C 23.472656 62.257812 24.007812 62.367188 24.007812 62.761719 Z M 23.992188 62.753906 " fill-opacity="1" fill-rule="evenodd"/></g><g clip-path="url(#id2)"><path fill="#000000" d="M 15.511719 78.953125 L 19.007812 78.953125 C 19.613281 78.953125 20.171875 79.445312 20.253906 80.066406 C 20.324219 80.679688 19.898438 81.171875 19.28125 81.171875 L 7.957031 81.171875 C 7.414062 81.171875 7.039062 81.609375 7.105469 82.148438 C 7.167969 82.695312 7.660156 83.125 8.199219 83.125 L 14.15625 83.125 L 14.1875 85.238281 L 18.050781 85.238281 C 18.347656 83.125 20.265625 81.582031 22.398438 81.582031 C 24.523438 81.582031 26.34375 83.132812 26.488281 85.238281 L 33.097656 85.238281 L 33.097656 85.214844 L 36.894531 85.214844 C 37.375 85.214844 37.808594 84.929688 37.992188 84.507812 L 38.296875 83.808594 C 38.976562 82.230469 40.609375 81.179688 42.382812 81.179688 C 43.984375 81.179688 45.414062 82.046875 46.058594 83.417969 L 46.625 84.609375 C 46.796875 84.984375 47.183594 85.214844 47.617188 85.214844 L 52.980469 85.214844 C 53.503906 85.214844 53.976562 84.878906 54.121094 84.398438 L 54.460938 83.308594 C 54.683594 82.570312 54.335938 81.820312 53.625 81.515625 L 53.878906 76.957031 C 53.980469 75.164062 53.546875 73.402344 52.625 71.871094 L 50.445312 68.585938 C 48.914062 66.277344 46.226562 64.910156 43.289062 64.945312 L 39.417969 64.988281 L 37.699219 64.996094 C 37.542969 65.625 36.953125 66.113281 36.238281 66.054688 L 34.84375 65.945312 C 34.996094 66.167969 35.085938 66.4375 35.085938 66.722656 L 35.085938 72.667969 C 35.085938 73.328125 34.628906 73.898438 33.980469 74.042969 L 24.878906 76.007812 C 24.296875 76.132812 23.6875 76.140625 23.109375 76.015625 L 20.195312 75.40625 L 15.332031 75.433594 L 14.199219 75.441406 L 10.699219 75.464844 C 10.164062 75.464844 9.777344 75.898438 9.84375 76.4375 C 9.910156 76.976562 10.402344 77.414062 10.9375 77.414062 L 14.089844 77.414062 L 14.113281 78.964844 L 15.519531 78.964844 Z M 39.410156 72.207031 C 38.890625 72.097656 38.535156 71.652344 38.554688 71.144531 L 38.679688 68.507812 C 38.707031 67.882812 39.28125 67.386719 39.933594 67.421875 L 45.023438 67.671875 C 46.269531 67.726562 47.378906 68.375 47.972656 69.402344 L 50.054688 73 C 50.410156 73.613281 49.800781 74.363281 49.074219 74.21875 L 39.410156 72.222656 Z M 39.410156 72.207031 " fill-opacity="1" fill-rule="evenodd"/></g><path fill="#ff914d" d="M 11.765625 70.816406 C 11.828125 71.355469 12.324219 71.792969 12.859375 71.792969 L 12.960938 71.792969 L 12.910156 69.832031 L 12.621094 69.832031 C 12.082031 69.832031 11.699219 70.269531 11.765625 70.808594 Z M 11.765625 70.816406 " fill-opacity="1" fill-rule="evenodd"/><path fill="#ff914d" d="M 9.503906 69.613281 C 10.0625 69.613281 10.460938 69.164062 10.386719 68.601562 C 10.316406 68.042969 9.808594 67.589844 9.25 67.589844 L 7.972656 67.589844 C 7.414062 67.589844 7.015625 68.042969 7.089844 68.601562 C 7.160156 69.164062 7.667969 69.613281 8.226562 69.613281 Z M 9.503906 69.613281 " fill-opacity="1" fill-rule="evenodd"/><path fill="#ff914d" d="M 7.667969 72.40625 L 6.394531 72.40625 C 5.835938 72.40625 5.4375 72.855469 5.507812 73.417969 C 5.582031 73.976562 6.089844 74.429688 6.648438 74.429688 L 7.921875 74.429688 C 8.480469 74.429688 8.878906 73.976562 8.808594 73.417969 C 8.734375 72.855469 8.226562 72.40625 7.667969 72.40625 Z M 7.667969 72.40625 " fill-opacity="1" fill-rule="evenodd"/><path fill="#ff914d" d="M 3.515625 75.761719 C 3.441406 75.199219 2.933594 74.75 2.378906 74.75 L 1.109375 74.75 C 0.550781 74.75 0.152344 75.199219 0.222656 75.761719 C 0.296875 76.324219 0.804688 76.773438 1.363281 76.773438 L 2.632812 76.773438 C 3.1875 76.773438 3.585938 76.324219 3.515625 75.761719 Z M 3.515625 75.761719 " fill-opacity="1" fill-rule="evenodd"/><path fill="#ff914d" d="M 4.515625 78.703125 L 3.238281 78.703125 C 2.683594 78.703125 2.28125 79.15625 2.355469 79.714844 C 2.429688 80.277344 2.933594 80.730469 3.492188 80.730469 L 4.769531 80.730469 C 5.328125 80.730469 5.726562 80.277344 5.652344 79.714844 C 5.582031 79.15625 5.074219 78.703125 4.515625 78.703125 Z M 4.515625 78.703125 " fill-opacity="1" fill-rule="evenodd"/><path fill="#ff914d" d="M 9.664062 84.226562 L 8.386719 84.226562 C 7.828125 84.226562 7.429688 84.675781 7.503906 85.238281 C 7.574219 85.796875 8.082031 86.25 8.640625 86.25 L 9.917969 86.25 C 10.472656 86.25 10.871094 85.796875 10.800781 85.238281 C 10.726562 84.675781 10.21875 84.226562 9.664062 84.226562 Z M 9.664062 84.226562 " fill-opacity="1" fill-rule="evenodd"/><g clip-path="url(#id3)"><path fill="#000000" d="M 22.40625 82.535156 C 20.585938 82.535156 19.050781 83.933594 18.96875 85.660156 C 18.890625 87.386719 20.296875 88.785156 22.117188 88.785156 C 23.933594 88.785156 25.472656 87.386719 25.550781 85.660156 C 25.632812 83.933594 24.226562 82.535156 22.40625 82.535156 Z M 22.40625 82.535156 " fill-opacity="1" fill-rule="evenodd"/></g><g clip-path="url(#id4)"><path fill="#000000" d="M 42.230469 82.535156 C 40.410156 82.535156 38.875 83.933594 38.796875 85.660156 C 38.714844 87.386719 40.121094 88.785156 41.941406 88.785156 C 43.761719 88.785156 45.296875 87.386719 45.378906 85.660156 C 45.457031 83.933594 44.050781 82.535156 42.230469 82.535156 Z M 42.230469 82.535156 " fill-opacity="1" fill-rule="evenodd"/></g><g fill="#000000" fill-opacity="1"><g transform="translate(56.429095, 82.277298)"><g><path d="M 4.875 0.140625 C 3.5625 0.140625 2.523438 -0.164062 1.765625 -0.78125 C 1.003906 -1.394531 0.625 -2.21875 0.625 -3.25 C 0.625 -3.363281 0.640625 -3.539062 0.671875 -3.78125 L 0.703125 -4.015625 C 0.710938 -4.109375 0.75 -4.1875 0.8125 -4.25 C 0.882812 -4.3125 0.96875 -4.34375 1.0625 -4.34375 L 3.296875 -4.34375 C 3.390625 -4.34375 3.460938 -4.320312 3.515625 -4.28125 C 3.566406 -4.238281 3.585938 -4.1875 3.578125 -4.125 L 3.546875 -3.90625 C 3.492188 -3.519531 3.640625 -3.175781 3.984375 -2.875 C 4.328125 -2.570312 4.800781 -2.421875 5.40625 -2.421875 C 5.957031 -2.421875 6.367188 -2.550781 6.640625 -2.8125 C 6.910156 -3.070312 7.046875 -3.359375 7.046875 -3.671875 C 7.046875 -3.972656 6.914062 -4.203125 6.65625 -4.359375 C 6.394531 -4.515625 5.929688 -4.710938 5.265625 -4.953125 C 5.203125 -4.972656 5.132812 -4.992188 5.0625 -5.015625 C 5 -5.046875 4.9375 -5.070312 4.875 -5.09375 C 4.21875 -5.332031 3.640625 -5.582031 3.140625 -5.84375 C 2.640625 -6.113281 2.210938 -6.476562 1.859375 -6.9375 C 1.515625 -7.394531 1.34375 -7.957031 1.34375 -8.625 C 1.34375 -8.71875 1.351562 -8.875 1.375 -9.09375 C 1.46875 -9.84375 1.738281 -10.492188 2.1875 -11.046875 C 2.632812 -11.609375 3.210938 -12.039062 3.921875 -12.34375 C 4.628906 -12.644531 5.410156 -12.796875 6.265625 -12.796875 C 7.097656 -12.796875 7.835938 -12.648438 8.484375 -12.359375 C 9.128906 -12.078125 9.632812 -11.664062 10 -11.125 C 10.363281 -10.59375 10.546875 -9.976562 10.546875 -9.28125 C 10.546875 -9.164062 10.53125 -8.988281 10.5 -8.75 L 10.484375 -8.609375 C 10.472656 -8.503906 10.4375 -8.421875 10.375 -8.359375 C 10.3125 -8.304688 10.234375 -8.28125 10.140625 -8.28125 L 7.90625 -8.28125 C 7.800781 -8.28125 7.722656 -8.296875 7.671875 -8.328125 C 7.617188 -8.367188 7.597656 -8.410156 7.609375 -8.453125 L 7.640625 -8.796875 C 7.640625 -9.179688 7.476562 -9.515625 7.15625 -9.796875 C 6.84375 -10.085938 6.40625 -10.234375 5.84375 -10.234375 C 5.34375 -10.234375 4.945312 -10.117188 4.65625 -9.890625 C 4.375 -9.671875 4.234375 -9.363281 4.234375 -8.96875 C 4.234375 -8.75 4.3125 -8.5625 4.46875 -8.40625 C 4.625 -8.25 4.859375 -8.097656 5.171875 -7.953125 C 5.484375 -7.816406 5.960938 -7.628906 6.609375 -7.390625 C 7.335938 -7.140625 7.910156 -6.914062 8.328125 -6.71875 C 8.742188 -6.519531 9.128906 -6.203125 9.484375 -5.765625 C 9.835938 -5.328125 10.015625 -4.773438 10.015625 -4.109375 C 10.015625 -4.023438 10.003906 -3.875 9.984375 -3.65625 C 9.878906 -2.894531 9.597656 -2.226562 9.140625 -1.65625 C 8.679688 -1.082031 8.082031 -0.640625 7.34375 -0.328125 C 6.613281 -0.015625 5.789062 0.140625 4.875 0.140625 Z M 4.875 0.140625 "/></g></g></g><g fill="#000000" fill-opacity="1"><g transform="translate(66.860517, 82.277298)"><g><path d="M 6.75 -9.015625 C 6.757812 -9.117188 6.789062 -9.195312 6.84375 -9.25 C 6.90625 -9.3125 6.988281 -9.34375 7.09375 -9.34375 L 9.359375 -9.34375 C 9.460938 -9.34375 9.539062 -9.3125 9.59375 -9.25 C 9.644531 -9.195312 9.664062 -9.117188 9.65625 -9.015625 L 8.59375 -0.328125 C 8.550781 -0.109375 8.425781 0 8.21875 0 L 5.953125 0 C 5.847656 0 5.769531 -0.03125 5.71875 -0.09375 C 5.675781 -0.15625 5.660156 -0.234375 5.671875 -0.328125 L 5.734375 -0.78125 C 5.734375 -0.84375 5.71875 -0.878906 5.6875 -0.890625 C 5.664062 -0.898438 5.632812 -0.878906 5.59375 -0.828125 C 5.03125 -0.179688 4.265625 0.140625 3.296875 0.140625 C 2.492188 0.140625 1.859375 -0.0859375 1.390625 -0.546875 C 0.921875 -1.015625 0.6875 -1.675781 0.6875 -2.53125 C 0.6875 -2.789062 0.695312 -2.992188 0.71875 -3.140625 L 1.453125 -9.015625 C 1.460938 -9.117188 1.492188 -9.195312 1.546875 -9.25 C 1.609375 -9.3125 1.691406 -9.34375 1.796875 -9.34375 L 4.0625 -9.34375 C 4.164062 -9.34375 4.242188 -9.3125 4.296875 -9.25 C 4.347656 -9.195312 4.367188 -9.117188 4.359375 -9.015625 L 3.703125 -3.828125 L 3.6875 -3.59375 C 3.6875 -3.238281 3.773438 -2.957031 3.953125 -2.75 C 4.140625 -2.539062 4.394531 -2.4375 4.71875 -2.4375 C 5.039062 -2.4375 5.320312 -2.539062 5.5625 -2.75 C 5.800781 -2.957031 5.972656 -3.226562 6.078125 -3.5625 Z M 6.75 -9.015625 "/></g></g></g><g fill="#000000" fill-opacity="1"><g transform="translate(76.496477, 82.277298)"><g><path d="M 9.71875 -6.703125 C 9.789062 -6.347656 9.828125 -5.976562 9.828125 -5.59375 C 9.828125 -5.382812 9.804688 -5.0625 9.765625 -4.625 C 9.640625 -3.757812 9.421875 -3 9.109375 -2.34375 C 8.742188 -1.601562 8.234375 -1 7.578125 -0.53125 C 6.921875 -0.0703125 6.222656 0.15625 5.484375 0.15625 C 4.578125 0.15625 3.941406 -0.117188 3.578125 -0.671875 C 3.546875 -0.710938 3.515625 -0.726562 3.484375 -0.71875 C 3.453125 -0.707031 3.429688 -0.671875 3.421875 -0.609375 L 2.984375 2.984375 C 2.972656 3.078125 2.929688 3.15625 2.859375 3.21875 C 2.796875 3.28125 2.71875 3.3125 2.625 3.3125 L 0.34375 3.3125 C 0.25 3.3125 0.175781 3.28125 0.125 3.21875 C 0.0703125 3.15625 0.0546875 3.078125 0.078125 2.984375 L 1.5625 -9.015625 C 1.570312 -9.117188 1.601562 -9.195312 1.65625 -9.25 C 1.71875 -9.3125 1.796875 -9.34375 1.890625 -9.34375 L 4.171875 -9.34375 C 4.273438 -9.34375 4.351562 -9.3125 4.40625 -9.25 C 4.457031 -9.195312 4.476562 -9.117188 4.46875 -9.015625 L 4.40625 -8.59375 C 4.394531 -8.53125 4.398438 -8.488281 4.421875 -8.46875 C 4.453125 -8.457031 4.488281 -8.476562 4.53125 -8.53125 C 5.070312 -9.164062 5.78125 -9.484375 6.65625 -9.484375 C 7.414062 -9.484375 8.082031 -9.222656 8.65625 -8.703125 C 9.238281 -8.191406 9.59375 -7.523438 9.71875 -6.703125 Z M 6.125 -3.109375 C 6.394531 -3.492188 6.566406 -4.019531 6.640625 -4.6875 C 6.660156 -4.945312 6.671875 -5.140625 6.671875 -5.265625 C 6.671875 -5.609375 6.625 -5.914062 6.53125 -6.1875 C 6.332031 -6.632812 6 -6.859375 5.53125 -6.859375 C 5.082031 -6.859375 4.710938 -6.628906 4.421875 -6.171875 C 4.171875 -5.796875 4.007812 -5.300781 3.9375 -4.6875 C 3.914062 -4.394531 3.90625 -4.191406 3.90625 -4.078125 C 3.90625 -3.691406 3.957031 -3.363281 4.0625 -3.09375 C 4.257812 -2.6875 4.570312 -2.484375 5 -2.484375 C 5.457031 -2.484375 5.832031 -2.691406 6.125 -3.109375 Z M 6.125 -3.109375 "/></g></g></g><g fill="#000000" fill-opacity="1"><g transform="translate(86.36746, 82.277298)"><g><path d="M 9.71875 -6.703125 C 9.789062 -6.347656 9.828125 -5.976562 9.828125 -5.59375 C 9.828125 -5.382812 9.804688 -5.0625 9.765625 -4.625 C 9.640625 -3.757812 9.421875 -3 9.109375 -2.34375 C 8.742188 -1.601562 8.234375 -1 7.578125 -0.53125 C 6.921875 -0.0703125 6.222656 0.15625 5.484375 0.15625 C 4.578125 0.15625 3.941406 -0.117188 3.578125 -0.671875 C 3.546875 -0.710938 3.515625 -0.726562 3.484375 -0.71875 C 3.453125 -0.707031 3.429688 -0.671875 3.421875 -0.609375 L 2.984375 2.984375 C 2.972656 3.078125 2.929688 3.15625 2.859375 3.21875 C 2.796875 3.28125 2.71875 3.3125 2.625 3.3125 L 0.34375 3.3125 C 0.25 3.3125 0.175781 3.28125 0.125 3.21875 C 0.0703125 3.15625 0.0546875 3.078125 0.078125 2.984375 L 1.5625 -9.015625 C 1.570312 -9.117188 1.601562 -9.195312 1.65625 -9.25 C 1.71875 -9.3125 1.796875 -9.34375 1.890625 -9.34375 L 4.171875 -9.34375 C 4.273438 -9.34375 4.351562 -9.3125 4.40625 -9.25 C 4.457031 -9.195312 4.476562 -9.117188 4.46875 -9.015625 L 4.40625 -8.59375 C 4.394531 -8.53125 4.398438 -8.488281 4.421875 -8.46875 C 4.453125 -8.457031 4.488281 -8.476562 4.53125 -8.53125 C 5.070312 -9.164062 5.78125 -9.484375 6.65625 -9.484375 C 7.414062 -9.484375 8.082031 -9.222656 8.65625 -8.703125 C 9.238281 -8.191406 9.59375 -7.523438 9.71875 -6.703125 Z M 6.125 -3.109375 C 6.394531 -3.492188 6.566406 -4.019531 6.640625 -4.6875 C 6.660156 -4.945312 6.671875 -5.140625 6.671875 -5.265625 C 6.671875 -5.609375 6.625 -5.914062 6.53125 -6.1875 C 6.332031 -6.632812 6 -6.859375 5.53125 -6.859375 C 5.082031 -6.859375 4.710938 -6.628906 4.421875 -6.171875 C 4.171875 -5.796875 4.007812 -5.300781 3.9375 -4.6875 C 3.914062 -4.394531 3.90625 -4.191406 3.90625 -4.078125 C 3.90625 -3.691406 3.957031 -3.363281 4.0625 -3.09375 C 4.257812 -2.6875 4.570312 -2.484375 5 -2.484375 C 5.457031 -2.484375 5.832031 -2.691406 6.125 -3.109375 Z M 6.125 -3.109375 "/></g></g></g><g fill="#000000" fill-opacity="1"><g transform="translate(96.238444, 82.277298)"><g><path d="M 0.734375 0 C 0.640625 0 0.566406 -0.03125 0.515625 -0.09375 C 0.460938 -0.15625 0.441406 -0.234375 0.453125 -0.328125 L 1.9375 -12.328125 C 1.945312 -12.421875 1.984375 -12.5 2.046875 -12.5625 C 2.117188 -12.625 2.203125 -12.65625 2.296875 -12.65625 L 4.578125 -12.65625 C 4.671875 -12.65625 4.738281 -12.625 4.78125 -12.5625 C 4.832031 -12.5 4.851562 -12.421875 4.84375 -12.328125 L 3.375 -0.328125 C 3.34375 -0.109375 3.222656 0 3.015625 0 Z M 0.734375 0 "/></g></g></g><g fill="#000000" fill-opacity="1"><g transform="translate(100.703882, 82.277298)"><g><path d="M 0.03125 3.59375 C -0.0507812 3.59375 -0.078125 3.484375 -0.046875 3.265625 L 0.15625 1.46875 C 0.175781 1.363281 0.195312 1.28125 0.21875 1.21875 C 0.25 1.164062 0.28125 1.140625 0.3125 1.140625 L 0.390625 1.140625 C 1.140625 1.140625 1.679688 1.070312 2.015625 0.9375 C 2.359375 0.800781 2.597656 0.519531 2.734375 0.09375 C 2.742188 0.0390625 2.75 -0.015625 2.75 -0.078125 L 1.0625 -8.984375 L 1.0625 -9.0625 C 1.0625 -9.25 1.160156 -9.34375 1.359375 -9.34375 L 3.8125 -9.34375 C 3.90625 -9.34375 3.976562 -9.316406 4.03125 -9.265625 C 4.09375 -9.210938 4.125 -9.144531 4.125 -9.0625 L 4.6875 -4.34375 C 4.71875 -4.21875 4.765625 -4.21875 4.828125 -4.34375 L 6.515625 -9.0625 C 6.535156 -9.144531 6.582031 -9.210938 6.65625 -9.265625 C 6.726562 -9.316406 6.8125 -9.34375 6.90625 -9.34375 L 9.328125 -9.34375 C 9.503906 -9.34375 9.59375 -9.269531 9.59375 -9.125 L 9.5625 -8.984375 L 5.515625 0.1875 C 5.109375 1.082031 4.71875 1.757812 4.34375 2.21875 C 3.96875 2.6875 3.457031 3.03125 2.8125 3.25 C 2.175781 3.476562 1.289062 3.59375 0.15625 3.59375 Z M 0.03125 3.59375 "/></g></g></g><g fill="#000000" fill-opacity="1"><g transform="translate(109.815553, 82.277298)"><g/></g></g><g fill="#ff914d" fill-opacity="1"><g transform="translate(113.315087, 82.277298)"><g><path d="M 4.875 0.140625 C 3.5625 0.140625 2.523438 -0.164062 1.765625 -0.78125 C 1.003906 -1.394531 0.625 -2.21875 0.625 -3.25 C 0.625 -3.363281 0.640625 -3.539062 0.671875 -3.78125 L 0.703125 -4.015625 C 0.710938 -4.109375 0.75 -4.1875 0.8125 -4.25 C 0.882812 -4.3125 0.96875 -4.34375 1.0625 -4.34375 L 3.296875 -4.34375 C 3.390625 -4.34375 3.460938 -4.320312 3.515625 -4.28125 C 3.566406 -4.238281 3.585938 -4.1875 3.578125 -4.125 L 3.546875 -3.90625 C 3.492188 -3.519531 3.640625 -3.175781 3.984375 -2.875 C 4.328125 -2.570312 4.800781 -2.421875 5.40625 -2.421875 C 5.957031 -2.421875 6.367188 -2.550781 6.640625 -2.8125 C 6.910156 -3.070312 7.046875 -3.359375 7.046875 -3.671875 C 7.046875 -3.972656 6.914062 -4.203125 6.65625 -4.359375 C 6.394531 -4.515625 5.929688 -4.710938 5.265625 -4.953125 C 5.203125 -4.972656 5.132812 -4.992188 5.0625 -5.015625 C 5 -5.046875 4.9375 -5.070312 4.875 -5.09375 C 4.21875 -5.332031 3.640625 -5.582031 3.140625 -5.84375 C 2.640625 -6.113281 2.210938 -6.476562 1.859375 -6.9375 C 1.515625 -7.394531 1.34375 -7.957031 1.34375 -8.625 C 1.34375 -8.71875 1.351562 -8.875 1.375 -9.09375 C 1.46875 -9.84375 1.738281 -10.492188 2.1875 -11.046875 C 2.632812 -11.609375 3.210938 -12.039062 3.921875 -12.34375 C 4.628906 -12.644531 5.410156 -12.796875 6.265625 -12.796875 C 7.097656 -12.796875 7.835938 -12.648438 8.484375 -12.359375 C 9.128906 -12.078125 9.632812 -11.664062 10 -11.125 C 10.363281 -10.59375 10.546875 -9.976562 10.546875 -9.28125 C 10.546875 -9.164062 10.53125 -8.988281 10.5 -8.75 L 10.484375 -8.609375 C 10.472656 -8.503906 10.4375 -8.421875 10.375 -8.359375 C 10.3125 -8.304688 10.234375 -8.28125 10.140625 -8.28125 L 7.90625 -8.28125 C 7.800781 -8.28125 7.722656 -8.296875 7.671875 -8.328125 C 7.617188 -8.367188 7.597656 -8.410156 7.609375 -8.453125 L 7.640625 -8.796875 C 7.640625 -9.179688 7.476562 -9.515625 7.15625 -9.796875 C 6.84375 -10.085938 6.40625 -10.234375 5.84375 -10.234375 C 5.34375 -10.234375 4.945312 -10.117188 4.65625 -9.890625 C 4.375 -9.671875 4.234375 -9.363281 4.234375 -8.96875 C 4.234375 -8.75 4.3125 -8.5625 4.46875 -8.40625 C 4.625 -8.25 4.859375 -8.097656 5.171875 -7.953125 C 5.484375 -7.816406 5.960938 -7.628906 6.609375 -7.390625 C 7.335938 -7.140625 7.910156 -6.914062 8.328125 -6.71875 C 8.742188 -6.519531 9.128906 -6.203125 9.484375 -5.765625 C 9.835938 -5.328125 10.015625 -4.773438 10.015625 -4.109375 C 10.015625 -4.023438 10.003906 -3.875 9.984375 -3.65625 C 9.878906 -2.894531 9.597656 -2.226562 9.140625 -1.65625 C 8.679688 -1.082031 8.082031 -0.640625 7.34375 -0.328125 C 6.613281 -0.015625 5.789062 0.140625 4.875 0.140625 Z M 4.875 0.140625 "/></g></g></g><g fill="#ff914d" fill-opacity="1"><g transform="translate(123.746509, 82.277298)"><g><path d="M 4.515625 0.140625 C 3.472656 0.140625 2.617188 -0.144531 1.953125 -0.71875 C 1.285156 -1.300781 0.890625 -2.085938 0.765625 -3.078125 C 0.722656 -3.328125 0.703125 -3.582031 0.703125 -3.84375 C 0.703125 -4.125 0.722656 -4.410156 0.765625 -4.703125 C 0.835938 -5.273438 0.976562 -5.859375 1.1875 -6.453125 C 1.59375 -7.398438 2.191406 -8.140625 2.984375 -8.671875 C 3.773438 -9.210938 4.691406 -9.484375 5.734375 -9.484375 C 6.753906 -9.484375 7.585938 -9.210938 8.234375 -8.671875 C 8.890625 -8.140625 9.296875 -7.40625 9.453125 -6.46875 C 9.503906 -6.195312 9.53125 -5.875 9.53125 -5.5 C 9.53125 -5.15625 9.515625 -4.898438 9.484375 -4.734375 C 9.410156 -4.128906 9.28125 -3.597656 9.09375 -3.140625 C 8.726562 -2.128906 8.140625 -1.328125 7.328125 -0.734375 C 6.523438 -0.148438 5.585938 0.140625 4.515625 0.140625 Z M 4.84375 -2.421875 C 5.175781 -2.421875 5.46875 -2.53125 5.71875 -2.75 C 5.976562 -2.976562 6.179688 -3.285156 6.328125 -3.671875 C 6.421875 -3.929688 6.5 -4.273438 6.5625 -4.703125 C 6.582031 -4.960938 6.59375 -5.148438 6.59375 -5.265625 C 6.59375 -5.773438 6.492188 -6.175781 6.296875 -6.46875 C 6.097656 -6.769531 5.796875 -6.921875 5.390625 -6.921875 C 4.703125 -6.921875 4.21875 -6.53125 3.9375 -5.75 C 3.800781 -5.445312 3.71875 -5.097656 3.6875 -4.703125 C 3.65625 -4.472656 3.640625 -4.25 3.640625 -4.03125 C 3.640625 -3.550781 3.738281 -3.160156 3.9375 -2.859375 C 4.144531 -2.566406 4.445312 -2.421875 4.84375 -2.421875 Z M 4.84375 -2.421875 "/></g></g></g><g fill="#ff914d" fill-opacity="1"><g transform="translate(133.52709, 82.277298)"><g><path d="M 7.03125 -9.359375 C 7.125 -9.359375 7.195312 -9.328125 7.25 -9.265625 C 7.300781 -9.210938 7.316406 -9.132812 7.296875 -9.03125 L 7.09375 -7.234375 C 7.050781 -7.015625 6.925781 -6.90625 6.71875 -6.90625 L 5.203125 -6.90625 C 5.179688 -6.90625 5.15625 -6.890625 5.125 -6.859375 C 5.09375 -6.835938 5.078125 -6.8125 5.078125 -6.78125 L 4.28125 -0.328125 C 4.269531 -0.234375 4.226562 -0.15625 4.15625 -0.09375 C 4.09375 -0.03125 4.015625 0 3.921875 0 L 1.640625 0 C 1.546875 0 1.472656 -0.03125 1.421875 -0.09375 C 1.378906 -0.15625 1.363281 -0.234375 1.375 -0.328125 L 2.171875 -6.78125 C 2.171875 -6.863281 2.132812 -6.90625 2.0625 -6.90625 L 1.21875 -6.90625 C 1.113281 -6.90625 1.035156 -6.9375 0.984375 -7 C 0.941406 -7.0625 0.925781 -7.140625 0.9375 -7.234375 L 1.15625 -9.03125 C 1.195312 -9.25 1.316406 -9.359375 1.515625 -9.359375 L 2.375 -9.359375 C 2.394531 -9.359375 2.421875 -9.367188 2.453125 -9.390625 C 2.484375 -9.421875 2.5 -9.453125 2.5 -9.484375 L 2.546875 -9.9375 C 2.628906 -10.65625 2.816406 -11.210938 3.109375 -11.609375 C 3.410156 -12.015625 3.84375 -12.296875 4.40625 -12.453125 C 4.96875 -12.617188 5.703125 -12.6875 6.609375 -12.65625 L 7.234375 -12.65625 C 7.328125 -12.65625 7.394531 -12.625 7.4375 -12.5625 C 7.488281 -12.5 7.507812 -12.421875 7.5 -12.328125 L 7.34375 -10.90625 C 7.300781 -10.6875 7.179688 -10.578125 6.984375 -10.578125 L 6.40625 -10.578125 C 6.082031 -10.554688 5.847656 -10.476562 5.703125 -10.34375 C 5.566406 -10.207031 5.472656 -9.984375 5.421875 -9.671875 L 5.40625 -9.484375 C 5.40625 -9.398438 5.441406 -9.359375 5.515625 -9.359375 Z M 7.03125 -9.359375 "/></g></g></g><g fill="#ff914d" fill-opacity="1"><g transform="translate(140.505479, 82.277298)"><g><path d="M 6.875 -7.265625 C 6.863281 -7.171875 6.820312 -7.09375 6.75 -7.03125 C 6.6875 -6.96875 6.609375 -6.9375 6.515625 -6.9375 L 5.0625 -6.9375 C 4.988281 -6.9375 4.941406 -6.894531 4.921875 -6.8125 L 4.53125 -3.65625 C 4.519531 -3.582031 4.515625 -3.484375 4.515625 -3.359375 C 4.515625 -2.867188 4.742188 -2.625 5.203125 -2.625 L 5.765625 -2.625 C 5.859375 -2.625 5.929688 -2.59375 5.984375 -2.53125 C 6.035156 -2.46875 6.050781 -2.390625 6.03125 -2.296875 L 5.796875 -0.390625 C 5.785156 -0.203125 5.671875 -0.0976562 5.453125 -0.078125 C 4.929688 -0.046875 4.554688 -0.03125 4.328125 -0.03125 C 3.390625 -0.03125 2.691406 -0.164062 2.234375 -0.4375 C 1.785156 -0.707031 1.5625 -1.210938 1.5625 -1.953125 C 1.5625 -2.046875 1.570312 -2.203125 1.59375 -2.421875 L 2.140625 -6.8125 L 2.140625 -6.859375 C 2.140625 -6.910156 2.101562 -6.9375 2.03125 -6.9375 L 1.171875 -6.9375 C 1.078125 -6.9375 1.003906 -6.96875 0.953125 -7.03125 C 0.898438 -7.09375 0.878906 -7.171875 0.890625 -7.265625 L 1.109375 -9.015625 C 1.140625 -9.234375 1.257812 -9.34375 1.46875 -9.34375 L 2.3125 -9.34375 C 2.351562 -9.34375 2.382812 -9.351562 2.40625 -9.375 C 2.4375 -9.40625 2.453125 -9.4375 2.453125 -9.46875 L 2.71875 -11.515625 C 2.726562 -11.609375 2.765625 -11.6875 2.828125 -11.75 C 2.890625 -11.8125 2.972656 -11.84375 3.078125 -11.84375 L 5.21875 -11.84375 C 5.320312 -11.84375 5.394531 -11.8125 5.4375 -11.75 C 5.488281 -11.6875 5.507812 -11.609375 5.5 -11.515625 L 5.25 -9.46875 C 5.25 -9.382812 5.28125 -9.34375 5.34375 -9.34375 L 6.8125 -9.34375 C 6.90625 -9.34375 6.976562 -9.3125 7.03125 -9.25 C 7.082031 -9.195312 7.101562 -9.117188 7.09375 -9.015625 Z M 6.875 -7.265625 "/></g></g></g></svg>